<?xml version="1.0" encoding="utf-8"?>
<!-- Generator: Adobe Illustrator 24.1.2, SVG Export Plug-In . SVG Version: 6.00 Build 0)  -->
<svg version="1.1" xmlns="http://www.w3.org/2000/svg" xmlns:xlink="http://www.w3.org/1999/xlink" x="0px" y="0px"
	 viewBox="0 0 359 376" style="enable-background:new 0 0 359 376;" xml:space="preserve">
<style type="text/css">
	.st0{fill:#FFFFFF;}
	.st1{fill:#FFFFFF;fill-opacity:0.6;}
</style>
<g id="Layer_1">
	<polygon points="261,0 0,0 0,320.5 97.5,376 358,376 358,55.2 	"/>
</g>
<g id="Layer_2">
	<path class="st0" d="M98,186.9v1.6h2.8v11h1.8v-12.6H98z M107.8,197.9l3.9-3.7c1.7-1.6,2.1-2.7,2.1-4c0-2.2-1.7-3.5-4.3-3.5
		c-2,0-3.6,0.7-4.6,1.9l1.2,1.1c0.8-0.9,1.9-1.4,3.2-1.4c1.8,0,2.7,0.8,2.7,2.1c0,0.8-0.3,1.6-1.6,2.9l-5.1,4.9v1.2h9.1v-1.6H107.8z
		 M115,186.9v1.6h2.8v11h1.8v-12.6H115z M133.4,194.9H131v-2.7h-1.7v2.7h-4.8l6.2-8h-1.9l-6.4,8.2v1.3h7v3.1h1.7v-3.1h2.4V194.9z
		 M139.9,191.9c-1.6,0-2.9,0.6-3.6,1.7c0-0.2,0-0.3,0-0.4c0-3.1,1.6-4.8,4.2-4.8c0.9,0,1.8,0.2,2.4,0.6l0.7-1.4
		c-0.8-0.5-1.9-0.7-3.1-0.7c-3.5,0-6,2.3-6,6.6c0,4,1.9,6.3,5.3,6.3c2.5,0,4.5-1.5,4.5-4C144.2,193.3,142.4,191.9,139.9,191.9z
		 M139.7,198.2c-1.9,0-3-1.1-3-2.4c0-1.4,1.2-2.4,2.9-2.4c1.8,0,2.9,1,2.9,2.4C142.5,197.2,141.3,198.2,139.7,198.2z M145.1,186.9
		v3.8h1.7v-2.3h5.8l-5,11h1.9l5.1-11.4v-1.2H145.1z M156.5,197.1c-0.7,0-1.2,0.5-1.2,1.2c0,0.5,0.3,1,0.8,1.1l-0.7,2.7h1.1l0.8-2.5
		c0.2-0.7,0.3-0.9,0.3-1.3C157.6,197.7,157.1,197.1,156.5,197.1z M172,190h-7v9.5h1.7v-8h5.3V190z M173.3,199.6
		c0.6,0,1.2-0.5,1.2-1.2s-0.5-1.2-1.2-1.2c-0.7,0-1.2,0.5-1.2,1.2S172.6,199.6,173.3,199.6z M195.5,199.5l0-12.6H194l-5.2,8.9
		l-5.3-8.9h-1.5v12.6h1.7v-9.1l4.6,7.6h0.8l4.6-7.6l0,9.2H195.5z M203.2,199.6c2.9,0,4.9-2,4.9-4.9c0-2.8-2.1-4.9-4.9-4.9
		s-5,2-5,4.9C198.3,197.6,200.4,199.6,203.2,199.6z M203.2,198.1c-1.8,0-3.2-1.3-3.2-3.4c0-2,1.4-3.3,3.2-3.3s3.2,1.3,3.2,3.3
		C206.4,196.8,205.1,198.1,203.2,198.1z M214.8,199.6c1.7,0,3.1-0.7,3.9-2.1l-1.3-0.8c-0.6,0.9-1.5,1.4-2.6,1.4
		c-1.9,0-3.3-1.3-3.3-3.4c0-2,1.4-3.3,3.3-3.3c1,0,2,0.4,2.6,1.4l1.3-0.8c-0.8-1.3-2.2-2-3.9-2c-2.9,0-5,2-5,4.9
		C209.8,197.6,211.9,199.6,214.8,199.6z M227.9,199.5h2l-3.9-4.9l3.6-4.6h-1.9l-3.1,4h-2v-4H221v9.5h1.7v-4h2L227.9,199.5z
		 M238.2,194.6c1-0.4,1.5-1.1,1.5-2.1c0-1.6-1.4-2.4-3.6-2.4h-4.4v9.5h4.6c2.5,0,3.8-1,3.8-2.6C240.1,195.7,239.5,194.9,238.2,194.6
		z M233.4,191.3h2.6c1.3,0,2,0.4,2,1.4s-0.7,1.4-2,1.4h-2.6V191.3z M236.2,198.2h-2.8v-2.9h2.9c1.4,0,2.1,0.5,2.1,1.5
		C238.3,197.7,237.6,198.2,236.2,198.2z M246.2,189.9c-1.5,0-3,0.4-3.9,1.2l0.7,1.3c0.7-0.6,1.9-1,3-1c1.7,0,2.6,0.8,2.6,2.3v0.3
		h-2.7c-2.8,0-3.8,1.3-3.8,2.8c0,1.7,1.4,2.8,3.5,2.8c1.5,0,2.6-0.5,3.1-1.4v1.3h1.6v-5.8C250.3,191.1,248.8,189.9,246.2,189.9z
		 M245.8,198.3c-1.3,0-2.1-0.6-2.1-1.5c0-0.8,0.5-1.5,2.2-1.5h2.7v1.3C248.1,197.7,247.1,198.3,245.8,198.3z M253.8,197.1
		c-0.7,0-1.2,0.5-1.2,1.2c0,0.5,0.3,1,0.8,1.1l-0.7,2.7h1.1l0.8-2.5c0.2-0.7,0.3-0.9,0.3-1.3C254.9,197.7,254.5,197.1,253.8,197.1z
		 M99.2,221.5l0-12.6h-1.5l-5.2,8.9l-5.3-8.9h-1.5v12.6h1.7v-9.1l4.6,7.6h0.8l4.6-7.6l0,9.2H99.2z M106.9,221.6c2.9,0,4.9-2,4.9-4.9
		c0-2.8-2.1-4.9-4.9-4.9s-5,2-5,4.9C102,219.6,104.1,221.6,106.9,221.6z M106.9,220.1c-1.8,0-3.2-1.3-3.2-3.4c0-2,1.4-3.3,3.2-3.3
		s3.2,1.3,3.2,3.3C110.1,218.8,108.8,220.1,106.9,220.1z M115.2,212l-0.2,3.5c-0.1,2.3-0.2,4.6-1.7,4.6c-0.1,0-0.3,0-0.4-0.1
		l-0.1,1.5c0.4,0.1,0.7,0.2,1.1,0.2c2.2,0,2.6-2.7,2.8-6l0.1-2.1h4.1v8h1.7V212H115.2z M134.1,220v-8h-7.4l-0.1,3.2
		c-0.1,2.4-0.4,4.7-1.7,4.8h-0.5v3.7h1.6v-2.2h8v2.2h1.6V220H134.1z M128.1,215.3l0.1-1.8h4.1v6.5H127
		C127.9,219.2,128,217.3,128.1,215.3z M141.2,211.9c-1.5,0-3,0.4-3.9,1.2l0.7,1.3c0.7-0.6,1.9-1,3-1c1.7,0,2.6,0.8,2.6,2.3v0.3h-2.7
		c-2.8,0-3.8,1.3-3.8,2.8c0,1.7,1.4,2.8,3.5,2.8c1.5,0,2.6-0.5,3.1-1.4v1.3h1.6v-5.8C145.3,213.1,143.8,211.9,141.2,211.9z
		 M140.8,220.3c-1.3,0-2.1-0.6-2.1-1.5c0-0.8,0.5-1.5,2.2-1.5h2.7v1.3C143.1,219.7,142.1,220.3,140.8,220.3z M154.9,216.6
		c1-0.4,1.5-1.1,1.5-2.1c0-1.6-1.3-2.4-3.6-2.4h-4.4v9.5h4.6c2.5,0,3.8-1,3.8-2.6C156.7,217.7,156.1,216.9,154.9,216.6z
		 M150.1,213.3h2.6c1.3,0,2,0.4,2,1.4s-0.7,1.4-2,1.4h-2.6V213.3z M152.9,220.2h-2.8v-2.9h2.9c1.4,0,2.1,0.5,2.1,1.5
		C155,219.7,154.3,220.2,152.9,220.2z M163.6,221.6c1.7,0,3.1-0.7,3.9-2.1l-1.3-0.8c-0.6,0.9-1.5,1.4-2.6,1.4
		c-1.9,0-3.3-1.3-3.3-3.4c0-2,1.4-3.3,3.3-3.3c1,0,2,0.4,2.6,1.4l1.3-0.8c-0.8-1.3-2.2-2-3.9-2c-2.9,0-5,2-5,4.9
		C158.6,219.6,160.7,221.6,163.6,221.6z M176.6,221.5h2l-3.9-4.9l3.6-4.6h-1.9l-3.1,4h-2v-4h-1.7v9.5h1.7v-4h2L176.6,221.5z
		 M183.7,211.9c-1.5,0-3,0.4-3.9,1.2l0.7,1.3c0.7-0.6,1.9-1,3-1c1.7,0,2.6,0.8,2.6,2.3v0.3h-2.7c-2.8,0-3.8,1.3-3.8,2.8
		c0,1.7,1.4,2.8,3.5,2.8c1.5,0,2.6-0.5,3.1-1.4v1.3h1.6v-5.8C187.8,213.1,186.3,211.9,183.7,211.9z M183.3,220.3
		c-1.3,0-2.1-0.6-2.1-1.5c0-0.8,0.5-1.5,2.2-1.5h2.7v1.3C185.6,219.7,184.6,220.3,183.3,220.3z M194.4,212c-2.6,0-4.2,1.1-4.2,3.3
		c0,1.5,0.8,2.5,2.2,2.9l-2.3,3.3h1.9l2.1-3h0.2h2.8v3h1.5V212H194.4z M192,215.4c0-1.3,0.9-1.9,2.5-1.9h2.6v3.8h-2.6
		C192.8,217.2,192,216.6,192,215.4z M213.6,212l-3.3,7.6L207,212h-1.8l4.2,9.5l-0.3,0.7c-0.5,1.1-1,1.5-1.8,1.5
		c-0.6,0-1.2-0.3-1.7-0.7l-0.7,1.3c0.6,0.6,1.5,0.9,2.4,0.9c1.5,0,2.6-0.6,3.4-2.6l4.6-10.5H213.6z M217.4,212l-0.2,3.5
		c-0.1,2.3-0.2,4.6-1.7,4.6c-0.1,0-0.3,0-0.4-0.1l-0.1,1.5c0.4,0.1,0.7,0.2,1.1,0.2c2.2,0,2.6-2.7,2.8-6l0.1-2.1h4.1v8h1.7V212
		H217.4z M228.4,221.6c0.6,0,1.2-0.5,1.2-1.2s-0.5-1.2-1.2-1.2c-0.7,0-1.2,0.5-1.2,1.2S227.8,221.6,228.4,221.6z M232.5,219.1
		c-0.7,0-1.2,0.5-1.2,1.2c0,0.5,0.3,1,0.8,1.1l-0.7,2.7h1.1l0.8-2.5c0.2-0.7,0.3-0.9,0.3-1.3C233.7,219.7,233.2,219.1,232.5,219.1z
		 M249.3,220v-8h-7.4l-0.1,3.2c-0.1,2.4-0.4,4.7-1.7,4.8h-0.5v3.7h1.6v-2.2h8v2.2h1.6V220H249.3z M243.3,215.3l0.1-1.8h4.1v6.5h-5.3
		C243.1,219.2,243.3,217.3,243.3,215.3z M253.4,221.6c0.6,0,1.2-0.5,1.2-1.2s-0.5-1.2-1.2-1.2c-0.7,0-1.2,0.5-1.2,1.2
		S252.7,221.6,253.4,221.6z M264.7,213.9h-1.4l0.3-3.5h5.6v-1.6h-7.1l-0.7,6.6h2.9c2.9,0,3.8,0.9,3.8,2.3c0,1.4-1.1,2.3-3,2.3
		c-1.5,0-2.9-0.6-3.8-1.4l-0.8,1.4c1.1,1,2.8,1.5,4.6,1.5c3.2,0,4.8-1.7,4.8-3.9C270,215.5,268.5,213.9,264.7,213.9z M272.7,219.1
		c-0.7,0-1.2,0.5-1.2,1.2c0,0.5,0.3,1,0.8,1.1l-0.7,2.7h1.1l0.8-2.5c0.2-0.7,0.3-0.9,0.3-1.3C273.8,219.7,273.3,219.1,272.7,219.1z
		 M117,233.9c-1.7,0-3.1,0.5-4,1.6l1,1c0.8-0.8,1.8-1.2,2.9-1.2c1.8,0,3.2,1.1,3.5,2.8h-4.8v1.3h4.8c-0.3,1.7-1.7,2.9-3.6,2.9
		c-1.2,0-2.1-0.4-2.9-1.1l-1,1c0.9,1,2.3,1.5,4,1.5c3,0,5.1-2.1,5.1-4.9C122.1,235.9,119.9,233.9,117,233.9z M131.3,234h-8.7v1.5
		h3.5v8h1.7v-8h3.5V234z M136.5,233.9c-1.5,0-3,0.4-3.9,1.2l0.7,1.3c0.7-0.6,1.9-1,3-1c1.7,0,2.6,0.8,2.6,2.3v0.3h-2.7
		c-2.8,0-3.8,1.3-3.8,2.8c0,1.7,1.4,2.8,3.5,2.8c1.5,0,2.6-0.5,3.1-1.4v1.3h1.6v-5.8C140.6,235.1,139.1,233.9,136.5,233.9z
		 M136.1,242.3c-1.3,0-2.1-0.6-2.1-1.5c0-0.8,0.5-1.5,2.2-1.5h2.7v1.3C138.4,241.7,137.4,242.3,136.1,242.3z M155,243.5h2.1
		l-3.3-4.9l3-4.6H155l-2.6,4h-1.9v-4h-1.7v4h-1.9l-2.6-4h-1.8l3,4.6l-3.3,4.9h2.1l2.6-4h1.9v4h1.7v-4h1.9L155,243.5z M168.4,235.9
		c-1.6,0-2.9,0.6-3.6,1.7c0-0.2,0-0.3,0-0.4c0-3.1,1.6-4.8,4.2-4.8c0.9,0,1.8,0.2,2.4,0.6l0.7-1.4c-0.8-0.5-1.9-0.7-3.1-0.7
		c-3.5,0-6,2.3-6,6.6c0,4,1.9,6.3,5.3,6.3c2.5,0,4.5-1.5,4.5-4C172.8,237.3,170.9,235.9,168.4,235.9z M168.2,242.2
		c-1.9,0-3-1.1-3-2.4c0-1.4,1.2-2.4,2.9-2.4c1.8,0,2.9,1,2.9,2.4C171,241.2,169.9,242.2,168.2,242.2z M175.5,241.1
		c-0.7,0-1.2,0.5-1.2,1.2c0,0.5,0.3,1,0.8,1.1l-0.7,2.7h1.1l0.8-2.5c0.2-0.7,0.3-0.9,0.3-1.3C176.7,241.7,176.2,241.1,175.5,241.1z
		 M188.1,243.6c2.9,0,4.9-2,4.9-4.9c0-2.8-2.1-4.9-4.9-4.9s-5,2-5,4.9C183.1,241.6,185.2,243.6,188.1,243.6z M188.1,242.1
		c-1.8,0-3.2-1.3-3.2-3.4c0-2,1.4-3.3,3.2-3.3s3.2,1.3,3.2,3.3C191.3,240.8,189.9,242.1,188.1,242.1z M207.6,238.7
		c0-3-2.1-4.6-5.6-4.8v-3.7h-1.7v3.7c-3.6,0.2-5.6,1.9-5.6,4.8c0,3,2.1,4.7,5.6,4.9v3.4h1.7v-3.4
		C205.5,243.4,207.6,241.7,207.6,238.7z M196.4,238.7c0-2,1.3-3.1,3.9-3.3v6.7C197.7,241.9,196.4,240.7,196.4,238.7z M202,242.1
		v-6.7c2.6,0.2,3.9,1.3,3.9,3.3C205.9,240.8,204.6,241.9,202,242.1z M210.2,243.6c0.6,0,1.2-0.5,1.2-1.2s-0.5-1.2-1.2-1.2
		c-0.7,0-1.2,0.5-1.2,1.2S209.5,243.6,210.2,243.6z M223.4,235.9c-1.6,0-2.9,0.6-3.6,1.7c0-0.2,0-0.3,0-0.4c0-3.1,1.6-4.8,4.2-4.8
		c0.9,0,1.8,0.2,2.4,0.6l0.7-1.4c-0.8-0.5-1.9-0.7-3.1-0.7c-3.5,0-6,2.3-6,6.6c0,4,1.9,6.3,5.3,6.3c2.5,0,4.5-1.5,4.5-4
		C227.7,237.3,225.9,235.9,223.4,235.9z M223.1,242.2c-1.9,0-3-1.1-3-2.4c0-1.4,1.2-2.4,2.9-2.4c1.8,0,2.9,1,2.9,2.4
		C225.9,241.2,224.8,242.2,223.1,242.2z M228.3,230.9v1.6h2.8v11h1.8v-12.6H228.3z M239.8,230.8c-2.5,0-4.4,1.5-4.4,4
		c0,2.3,1.8,3.8,4.3,3.8c1.6,0,2.9-0.6,3.6-1.7v0.4c0,3.2-1.6,4.8-4.2,4.8c-0.9,0-1.8-0.2-2.4-0.6l-0.7,1.4c0.8,0.5,1.9,0.7,3.1,0.7
		c3.5,0,6-2.3,6-6.6C245.1,233,243.2,230.8,239.8,230.8z M239.9,237.1c-1.8,0-2.9-1-2.9-2.4c0-1.5,1.1-2.4,2.8-2.4c2,0,3,1.1,3,2.4
		C242.9,236,241.7,237.1,239.9,237.1z M122.5,274.1v5.3c-0.8-1-2-1.5-3.3-1.5c-2.8,0-4.8,1.9-4.8,4.9c0,2.9,2,4.9,4.8,4.9
		c1.4,0,2.6-0.5,3.4-1.6v1.5h1.7v-13.4H122.5z M119.3,286.1c-1.8,0-3.2-1.3-3.2-3.4s1.4-3.3,3.2-3.3c1.8,0,3.2,1.3,3.2,3.3
		S121.1,286.1,119.3,286.1z M127.5,287.5h1.7v-13.4h-1.7V287.5z M135.2,287.6c2.5,0,4.1-1.1,4.1-2.8c0-3.7-6-1.9-6-4.1
		c0-0.8,0.7-1.3,2.3-1.3c0.9,0,1.9,0.2,2.8,0.8l0.7-1.4c-0.8-0.5-2.2-0.9-3.5-0.9c-2.4,0-4,1.2-4,2.9c0,3.8,6,1.9,6,4.1
		c0,0.8-0.7,1.3-2.3,1.3c-1.2,0-2.5-0.4-3.3-1l-0.7,1.4C132.1,287.1,133.7,287.6,135.2,287.6z M149.2,274.8c-5,0-8.5,3.4-8.5,8.2
		c0,4.8,3.4,8.2,8.4,8.2c1.3,0,2.8-0.3,3.9-0.8l-0.4-1.2c-1.1,0.6-2.4,0.8-3.5,0.8c-4.3,0-7.1-2.9-7.1-7c0-4.1,2.9-7,7.2-7
		c4.2,0,7.2,2.7,7.2,6.7c0,2.3-0.6,3.5-1.7,3.5c-0.6,0-1-0.3-1-1.3v-6.5h-1.6v1.5c-0.7-1-1.9-1.5-3.3-1.5c-2.6,0-4.4,1.9-4.4,4.6
		s1.9,4.6,4.4,4.6c1.5,0,2.7-0.6,3.4-1.7c0.2,1.1,1,1.7,2.2,1.7c2,0,3.2-1.9,3.2-4.9C157.6,278,154.2,274.8,149.2,274.8z
		 M149.1,286.2c-1.8,0-3.1-1.3-3.1-3.2c0-2,1.3-3.2,3.1-3.2c1.7,0,3.1,1.2,3.1,3.2C152.2,285,150.8,286.2,149.1,286.2z M167.4,287.5
		h2.1l-4.4-5.6l4-3.9h-2.1l-5.2,4.8v-8.6h-1.7v13.4h1.7v-2.6l2-1.8L167.4,287.5z M174.7,275.5c0.5,0,1,0.2,1.3,0.4l0.5-1.3
		c-0.5-0.4-1.2-0.6-1.9-0.6c-2,0-3.1,1.2-3.1,3.1v0.8h-1.6v1.4h1.6v8.1h1.7v-8.1h2.7V278h-2.8v-0.8
		C173.2,276,173.7,275.5,174.7,275.5z M181.1,275.5c0.5,0,1,0.2,1.3,0.4l0.5-1.3c-0.5-0.4-1.2-0.6-1.9-0.6c-2,0-3.2,1.2-3.2,3.1v0.8
		h-1.6v1.4h1.6v8.1h1.7v-8.1h2.7V278h-2.8v-0.8C179.5,276,180,275.5,181.1,275.5z M184.2,287.6c0.6,0,1.2-0.5,1.2-1.2
		s-0.5-1.2-1.2-1.2c-0.7,0-1.2,0.5-1.2,1.2S183.5,287.6,184.2,287.6z M191.8,287.6c1.7,0,3.1-0.7,3.9-2.1l-1.3-0.8
		c-0.6,0.9-1.5,1.4-2.6,1.4c-1.9,0-3.3-1.3-3.3-3.4c0-2,1.4-3.3,3.3-3.3c1,0,2,0.4,2.6,1.4l1.3-0.8c-0.8-1.3-2.2-2-3.9-2
		c-2.9,0-5,2-5,4.9C186.7,285.6,188.8,287.6,191.8,287.6z M206.4,282.8c0-2.9-2-4.9-4.7-4.9s-4.8,2-4.8,4.9c0,2.8,2.1,4.9,5.1,4.9
		c1.6,0,2.9-0.5,3.8-1.5l-1-1.1c-0.7,0.8-1.6,1.2-2.8,1.2c-1.9,0-3.2-1.1-3.5-2.8h7.7C206.4,283.1,206.4,282.9,206.4,282.8z
		 M201.7,279.3c1.7,0,2.9,1.1,3.1,2.7h-6.1C198.8,280.4,200,279.3,201.7,279.3z M213.9,277.9c-1.5,0-2.7,0.6-3.4,1.5V278h-1.7v9.5
		h1.7v-4.9c0-2.1,1.2-3.2,3-3.2c1.6,0,2.6,0.9,2.6,2.8v5.3h1.7V282C217.8,279.2,216.2,277.9,213.9,277.9z M225.9,285.7
		c-0.4,0.3-0.8,0.4-1.4,0.4c-1,0-1.5-0.6-1.5-1.6v-5.2h2.7V278H223v-2.1h-1.7v2.1h-1.6v1.4h1.6v5.2c0,1.9,1.1,3,3,3
		c0.8,0,1.6-0.2,2.1-0.7L225.9,285.7z M236.8,282.8c0-2.9-2-4.9-4.7-4.9c-2.8,0-4.8,2-4.8,4.9c0,2.8,2.1,4.9,5.1,4.9
		c1.6,0,2.9-0.5,3.8-1.5l-1-1.1c-0.7,0.8-1.6,1.2-2.8,1.2c-1.9,0-3.2-1.1-3.5-2.8h7.7C236.8,283.1,236.8,282.9,236.8,282.8z
		 M232.1,279.3c1.7,0,2.9,1.1,3.1,2.7H229C229.2,280.4,230.4,279.3,232.1,279.3z M240.8,279.6V278h-1.7v9.5h1.7v-4.8
		c0-2.1,1.2-3.2,3-3.2c0.1,0,0.3,0,0.4,0v-1.7C242.6,277.9,241.5,278.4,240.8,279.6z"/>
	<path class="st1" d="M89,159.8h-5.8l-1.1,2.7h-3l5.6-12.6h2.9l5.6,12.6h-3.1L89,159.8z M88.1,157.6l-2-4.8l-2,4.8H88.1z
		 M100.7,162.7c-1.3,0-2.5-0.3-3.5-0.8c-1-0.6-1.9-1.3-2.5-2.3c-0.6-1-0.9-2.1-0.9-3.3c0-1.2,0.3-2.3,0.9-3.3c0.6-1,1.4-1.8,2.5-2.3
		c1.1-0.6,2.2-0.8,3.5-0.8c1.3,0,2.5,0.3,3.5,0.8s1.9,1.3,2.5,2.3c0.6,1,0.9,2.1,0.9,3.3c0,1.2-0.3,2.4-0.9,3.3
		c-0.6,1-1.4,1.8-2.5,2.3C103.1,162.4,102,162.7,100.7,162.7z M100.7,160.2c0.7,0,1.4-0.2,2-0.5c0.6-0.3,1.1-0.8,1.4-1.4
		c0.3-0.6,0.5-1.3,0.5-2.1s-0.2-1.5-0.5-2.1c-0.3-0.6-0.8-1.1-1.4-1.4c-0.6-0.3-1.3-0.5-2-0.5s-1.4,0.2-2,0.5
		c-0.6,0.3-1.1,0.8-1.4,1.4c-0.3,0.6-0.5,1.3-0.5,2.1s0.2,1.5,0.5,2.1c0.3,0.6,0.8,1.1,1.4,1.4C99.2,160.1,99.9,160.2,100.7,160.2z
		 M114,157.7l2.5-3.5h2.5l-2.5,3.5l2.5,3.5h-2.5L114,157.7z M118,157.7l2.5-3.5h2.5l-2.5,3.5l2.5,3.5h-2.5L118,157.7z M130,157.4h-2
		v5.1h-2.9v-12.6h2.9v5.1h2.1l3.3-5.1h3.1l-4.1,6.1l4.2,6.5h-3.3L130,157.4z M143.9,162.7c-1.3,0-2.5-0.3-3.5-0.8
		c-1-0.6-1.9-1.3-2.5-2.3c-0.6-1-0.9-2.1-0.9-3.3c0-1.2,0.3-2.3,0.9-3.3c0.6-1,1.4-1.8,2.5-2.3c1.1-0.6,2.2-0.8,3.5-0.8
		s2.5,0.3,3.5,0.8c1,0.6,1.9,1.3,2.5,2.3c0.6,1,0.9,2.1,0.9,3.3c0,1.2-0.3,2.4-0.9,3.3c-0.6,1-1.4,1.8-2.5,2.3
		C146.4,162.4,145.2,162.7,143.9,162.7z M143.9,160.2c0.7,0,1.4-0.2,2-0.5c0.6-0.3,1.1-0.8,1.4-1.4c0.3-0.6,0.5-1.3,0.5-2.1
		s-0.2-1.5-0.5-2.1c-0.3-0.6-0.8-1.1-1.4-1.4c-0.6-0.3-1.3-0.5-2-0.5s-1.4,0.2-2,0.5c-0.6,0.3-1.1,0.8-1.4,1.4
		c-0.3,0.6-0.5,1.3-0.5,2.1s0.2,1.5,0.5,2.1c0.3,0.6,0.8,1.1,1.4,1.4C142.5,160.1,143.2,160.2,143.9,160.2z M164.6,149.9v12.6h-2.9
		v-5.2H156v5.2h-2.9v-12.6h2.9v5h5.7v-5H164.6z M181,160.1v5h-2.7v-2.7h-10.5v-12.6h2.9v10.2h5.6v-10.2h2.9v10.2H181z M192.7,160.2
		v2.3h-9.8v-12.6h9.5v2.3h-6.6v2.7h5.8v2.3h-5.8v2.9H192.7z M200.5,149.9c1.1,0,2.1,0.2,2.9,0.6c0.8,0.4,1.5,0.9,1.9,1.6
		c0.4,0.7,0.7,1.5,0.7,2.4c0,0.9-0.2,1.7-0.7,2.4c-0.4,0.7-1.1,1.2-1.9,1.6c-0.8,0.4-1.8,0.5-2.9,0.5h-2.5v3.5H195v-12.6H200.5z
		 M200.3,156.6c0.9,0,1.5-0.2,2-0.6c0.5-0.4,0.7-0.9,0.7-1.6c0-0.7-0.2-1.2-0.7-1.6c-0.5-0.4-1.1-0.6-2-0.6h-2.4v4.4H200.3z
		 M219.4,149.9v12.6h-2.9v-5.2h-5.7v5.2h-2.9v-12.6h2.9v5h5.7v-5H219.4z M240.7,160.1v5H238v-2.6h-8.9v2.6h-2.7l0-5h0.5
		c0.8,0,1.3-0.6,1.6-1.7c0.3-1.1,0.5-2.6,0.6-4.6l0.1-3.9h9.7v10.2H240.7z M231.6,154.1c-0.1,1.5-0.2,2.8-0.4,3.8
		c-0.2,1-0.5,1.8-0.9,2.2h5.6v-7.8h-4.3L231.6,154.1z M253.9,149.9v12.6H251v-10.2h-4.3l-0.1,2.6c-0.1,1.8-0.2,3.2-0.4,4.4
		c-0.2,1.1-0.6,2-1.2,2.6c-0.5,0.6-1.3,0.9-2.2,0.9c-0.4,0-0.9-0.1-1.4-0.2l0.2-2.5c0.2,0,0.3,0.1,0.5,0.1c0.7,0,1.2-0.4,1.5-1.2
		c0.3-0.8,0.4-2.1,0.5-3.9l0.2-5.1H253.9z M263,162.7c-1.3,0-2.4-0.3-3.5-0.8c-1-0.6-1.8-1.3-2.4-2.3c-0.6-1-0.9-2.1-0.9-3.4
		s0.3-2.4,0.9-3.3c0.6-1,1.4-1.8,2.4-2.3c1-0.6,2.2-0.8,3.5-0.8c1.1,0,2.1,0.2,3,0.6c0.9,0.4,1.6,0.9,2.2,1.7l-1.9,1.7
		c-0.9-1-1.9-1.5-3.2-1.5c-0.8,0-1.5,0.2-2.1,0.5c-0.6,0.3-1.1,0.8-1.4,1.4c-0.3,0.6-0.5,1.3-0.5,2.1s0.2,1.5,0.5,2.1
		c0.3,0.6,0.8,1.1,1.4,1.4c0.6,0.3,1.3,0.5,2.1,0.5c1.3,0,2.3-0.5,3.2-1.5l1.9,1.7c-0.6,0.7-1.3,1.3-2.2,1.7S264.1,162.7,263,162.7z
		 M268.8,161.2l2.5-3.5l-2.5-3.5h2.5l2.5,3.5l-2.5,3.5H268.8z M272.9,161.2l2.5-3.5l-2.5-3.5h2.5l2.5,3.5l-2.5,3.5H272.9z"/>
	<path class="st0" d="M83,100.6h-4.2v4.1h-3.1v-4.1h-4.2v-2.9h4.2v-4.1h3.1v4.1H83V100.6z M98.3,90.7v2.5l-6.2,14.3h-4.2l6-13.6
		h-5.6v2.7h-3.5v-5.9H98.3z M110.6,112.2c-1-1.5-1.7-3.1-2.2-5.1c-0.5-1.9-0.8-4-0.8-6.2c0-2.2,0.3-4.2,0.8-6.2
		c0.5-1.9,1.3-3.6,2.2-5.1h3.6c-1,1.8-1.7,3.6-2.2,5.4c-0.5,1.8-0.7,3.8-0.7,5.8c0,2,0.2,4,0.7,5.8c0.5,1.8,1.2,3.6,2.2,5.4H110.6z
		 M130.3,104h-2.7v3.5h-3.8V104h-9v-2.6l7.9-10.7h4.1l-7.3,10.1h4.5v-3.1h3.7v3.1h2.7V104z M137.3,90.4c2.4,0,4.2,0.7,5.5,2.2
		c1.3,1.4,2,3.5,2,6.2c0,1.9-0.4,3.5-1.1,4.9c-0.7,1.4-1.7,2.4-3,3.1c-1.3,0.7-2.8,1.1-4.5,1.1c-0.9,0-1.8-0.1-2.6-0.3
		c-0.8-0.2-1.5-0.5-2.1-0.9l1.4-2.9c0.8,0.6,1.9,0.8,3.1,0.8c1.4,0,2.6-0.4,3.4-1.2c0.8-0.8,1.3-2.1,1.3-3.6c-1,1-2.4,1.5-4.2,1.5
		c-1.1,0-2-0.2-2.9-0.6s-1.6-1-2.1-1.8c-0.5-0.8-0.8-1.7-0.8-2.8c0-1.1,0.3-2.1,0.8-3s1.3-1.5,2.3-1.9
		C135,90.6,136.1,90.4,137.3,90.4z M137.6,98.3c0.8,0,1.5-0.2,2.1-0.7c0.5-0.5,0.8-1.1,0.8-1.8s-0.3-1.3-0.8-1.8
		c-0.5-0.5-1.2-0.7-2.1-0.7c-0.8,0-1.5,0.2-2,0.7c-0.5,0.4-0.8,1.1-0.8,1.8c0,0.8,0.3,1.4,0.8,1.8C136,98.1,136.7,98.3,137.6,98.3z
		 M152.4,97c2.4,0,4.1,0.5,5.2,1.4c1.1,0.9,1.7,2.2,1.7,3.8c0,1-0.3,2-0.8,2.8c-0.5,0.8-1.3,1.5-2.4,2c-1,0.5-2.3,0.7-3.9,0.7
		c-1.2,0-2.4-0.2-3.5-0.5c-1.1-0.3-2.1-0.8-2.9-1.3l1.5-3c0.6,0.5,1.4,0.9,2.2,1.1c0.8,0.3,1.7,0.4,2.6,0.4c1,0,1.7-0.2,2.3-0.6
		c0.6-0.4,0.8-0.9,0.8-1.6c0-0.7-0.3-1.3-0.9-1.6c-0.6-0.4-1.6-0.6-3-0.6h-4.3l0.9-9.5h10.2v3.1h-7l-0.3,3.2H152.4z M160.2,112.2
		c1-1.8,1.7-3.6,2.2-5.4c0.5-1.8,0.7-3.8,0.7-5.8c0-2-0.2-4-0.7-5.8c-0.5-1.8-1.2-3.6-2.2-5.4h3.6c1,1.4,1.7,3.1,2.2,5
		c0.5,1.9,0.8,4,0.8,6.2s-0.3,4.3-0.8,6.2c-0.5,1.9-1.3,3.6-2.3,5H160.2z M189.5,90.7v2.5l-6.2,14.3H179l6-13.6h-5.6v2.7H176v-5.9
		H189.5z M204.4,90.7v2.5l-6.2,14.3h-4.2l6-13.6h-5.6v2.7h-3.5v-5.9H204.4z M212.8,90.7v16.8h-3.9V93.8h-3.4v-3.1H212.8z
		 M216.1,99.2h6.8v3h-6.8V99.2z M237.9,90.7v2.5l-6.2,14.3h-4.2l6-13.6h-5.6v2.7h-3.5v-5.9H237.9z M253.5,104h-2.7v3.5h-3.8V104h-9
		v-2.6l7.9-10.7h4.1l-7.3,10.1h4.5v-3.1h3.7v3.1h2.7V104z M255.2,99.2h6.8v3h-6.8V99.2z M275.6,98.7c0.8,0.4,1.5,1,1.9,1.6
		c0.4,0.7,0.7,1.4,0.7,2.3c0,1-0.3,2-0.9,2.7c-0.6,0.8-1.4,1.4-2.5,1.8c-1.1,0.4-2.3,0.6-3.7,0.6c-1.4,0-2.6-0.2-3.7-0.6
		c-1.1-0.4-1.9-1-2.5-1.8c-0.6-0.8-0.9-1.7-0.9-2.7c0-0.9,0.2-1.7,0.6-2.3c0.4-0.7,1.1-1.2,1.9-1.6c-0.6-0.4-1.1-0.9-1.4-1.4
		c-0.3-0.6-0.5-1.3-0.5-2c0-1,0.3-1.8,0.8-2.5s1.3-1.3,2.3-1.7c1-0.4,2.1-0.6,3.4-0.6c1.3,0,2.4,0.2,3.4,0.6c1,0.4,1.8,0.9,2.3,1.7
		s0.8,1.6,0.8,2.5c0,0.8-0.2,1.4-0.5,2C276.7,97.8,276.3,98.3,275.6,98.7z M271.1,93.3c-0.8,0-1.4,0.2-1.9,0.6
		c-0.5,0.4-0.7,0.9-0.7,1.5c0,0.6,0.2,1.1,0.7,1.5c0.5,0.4,1.1,0.6,1.9,0.6c0.8,0,1.4-0.2,1.9-0.6c0.5-0.4,0.7-0.9,0.7-1.5
		c0-0.7-0.2-1.2-0.7-1.5C272.5,93.5,271.9,93.3,271.1,93.3z M271.1,104.9c1,0,1.7-0.2,2.3-0.6c0.6-0.4,0.9-1,0.9-1.8
		s-0.3-1.3-0.9-1.8c-0.6-0.4-1.3-0.6-2.3-0.6c-1,0-1.7,0.2-2.3,0.6c-0.6,0.4-0.8,1-0.8,1.8c0,0.8,0.3,1.3,0.8,1.8
		C269.4,104.7,270.1,104.9,271.1,104.9z M286.4,90.7v16.8h-3.9V93.8h-3.4v-3.1H286.4z"/>
</g>
</svg>
