<svg width="298" height="312" xmlns="http://www.w3.org/2000/svg">

 <g>
  <title>background</title>
  <rect fill="none" id="canvas_background" height="402" width="582" y="-1" x="-1"/>
 </g>
 <g>
  <title>Layer 1</title>
  <g id="surface1">
   <path id="svg_1" fill-rule="nonzero" fill="rgb(0%,0%,0%)" d="m216.65234,0l-216.65234,0l0,265.94531l80.93359,46.05469l216.23438,0l0,-266.19531l-80.51563,-45.80469zm0,0"/>
   <path id="svg_2" fill-rule="nonzero" fill="rgb(100%,100%,100%)" d="m81.34766,155.08594l0,1.32812l2.32422,0l0,9.12891l1.49609,0l0,-10.45703l-3.82031,0zm8.13672,9.1289l3.23437,-3.07031c1.41406,-1.32812 1.74609,-2.24219 1.74609,-3.32031c0,-1.82422 -1.41406,-2.90234 -3.57031,-2.90234c-1.66015,0 -2.98828,0.58203 -3.82031,1.57421l0.99609,0.91407c0.66407,-0.7461 1.57813,-1.16016 2.65625,-1.16016c1.4961,0 2.24219,0.66406 2.24219,1.74219c0,0.66406 -0.25,1.32812 -1.32812,2.40625l-4.23438,4.0664l0,0.9961l7.55469,0l0,-1.32813l-5.47656,0l0,0.08203zm5.97656,-9.1289l0,1.32812l2.32422,0l0,9.12891l1.49218,0l0,-10.45703l-3.8164,0zm15.27344,6.64062l-1.99219,0l0,-2.24218l-1.41406,0l0,2.24218l-3.98438,0l5.14844,-6.64062l-1.57813,0l-5.3125,6.80469l0,1.07812l5.8125,0l0,2.57422l1.41016,0l0,-2.57422l1.99219,0l0,-1.24219l-0.08203,0zm5.39453,-2.49218c-1.32813,0 -2.40625,0.5 -2.98828,1.41406c0,-0.16797 0,-0.25 0,-0.33203c0,-2.57422 1.32812,-3.98438 3.48437,-3.98438c0.75,0 1.49609,0.16406 1.99219,0.4961l0.58203,-1.16016c-0.66406,-0.41406 -1.57813,-0.58203 -2.57422,-0.58203c-2.90234,0 -4.98047,1.91015 -4.98047,5.47656c0,3.32031 1.57813,5.23047 4.40235,5.23047c2.07421,0 3.73437,-1.24609 3.73437,-3.32031c-0.08203,-2.07422 -1.57812,-3.23828 -3.65234,-3.23828zm-0.16797,5.23046c-1.57422,0 -2.48828,-0.91406 -2.48828,-1.99218c0,-1.16016 0.99609,-1.99219 2.40625,-1.99219c1.49609,0 2.40625,0.83203 2.40625,1.99219c0,1.16015 -0.9961,1.99218 -2.32422,1.99218zm4.48437,-9.3789l0,3.15625l1.41016,0l0,-1.91016l4.81641,0l-4.15235,9.12891l1.57813,0l4.23437,-9.46094l0,-0.99609l-7.88672,0l0,0.08203zm9.46094,8.46484c-0.57812,0 -0.99609,0.41406 -0.99609,0.9961c0,0.41406 0.25,0.82812 0.66406,0.91406l-0.57813,2.23828l0.91016,0l0.66406,-2.07422c0.16797,-0.58203 0.25,-0.74609 0.25,-1.07812c0,-0.4961 -0.41406,-0.9961 -0.91406,-0.9961zm12.86719,-5.89062l-5.8086,0l0,7.88281l1.41016,0l0,-6.64063l4.39844,0l0,-1.24218zm1.07812,7.96484c0.5,0 0.9961,-0.41406 0.9961,-0.99609c0,-0.57813 -0.41407,-0.9961 -0.9961,-0.9961c-0.57812,0 -0.99609,0.41797 -0.99609,0.9961c0,0.58203 0.41797,0.99609 0.99609,0.99609zm18.42969,-0.08203l0,-10.45703l-1.24609,0l-4.31641,7.38672l-4.39844,-7.38672l-1.24609,0l0,10.45703l1.41406,0l0,-7.55078l3.81641,6.30469l0.66406,0l3.82031,-6.30469l0,7.63281l1.49219,0l0,-0.08203zm6.39063,0.08203c2.41015,0 4.07031,-1.66016 4.07031,-4.06641c0,-2.32421 -1.7461,-4.0664 -4.07031,-4.0664c-2.32422,0 -4.14844,1.66015 -4.14844,4.0664c0.08203,2.40625 1.82422,4.06641 4.14844,4.06641zm0,-1.24609c-1.49219,0 -2.65625,-1.07813 -2.65625,-2.82032c0,-1.66015 1.16406,-2.73828 2.65625,-2.73828c1.49609,0 2.65625,1.07813 2.65625,2.73828c0,1.74219 -1.07813,2.82032 -2.65625,2.82032zm9.6289,1.24609c1.41406,0 2.57422,-0.58203 3.23828,-1.74219l-1.07812,-0.66406c-0.5,0.74609 -1.2461,1.16016 -2.16016,1.16016c-1.57422,0 -2.73828,-1.07813 -2.73828,-2.82032c0,-1.66015 1.16406,-2.73828 2.73828,-2.73828c0.83203,0 1.66016,0.33203 2.16016,1.16407l1.07812,-0.66407c-0.66406,-1.07812 -1.82422,-1.66015 -3.23828,-1.66015c-2.40625,0 -4.14844,1.66015 -4.14844,4.0664c0,2.23828 1.74219,3.89844 4.14844,3.89844zm10.875,-0.08203l1.66016,0l-3.23828,-4.06641l2.98828,-3.8164l-1.57422,0l-2.57422,3.32031l-1.66016,0l0,-3.32031l-1.32812,0l0,7.88281l1.41016,0l0,-3.32031l1.66015,0l2.65625,3.32031zm8.55078,-4.06641c0.82813,-0.33203 1.2461,-0.91406 1.2461,-1.74218c0,-1.32813 -1.16407,-1.99219 -2.98828,-1.99219l-3.65235,0l0,7.88281l3.81641,0c2.07422,0 3.15625,-0.82812 3.15625,-2.15625c0,-1.07812 -0.5,-1.74219 -1.57813,-1.99219zm-3.98437,-2.73828l2.15625,0c1.08203,0 1.66015,0.33203 1.66015,1.16016c0,0.83203 -0.57812,1.16406 -1.66015,1.16406l-2.15625,0l0,-2.32422zm2.32422,5.72656l-2.32422,0l0,-2.40625l2.40625,0c1.16406,0 1.74219,0.41407 1.74219,1.24219c-0.08204,0.75 -0.66407,1.16406 -1.82422,1.16406zm8.30078,-6.88671c-1.2461,0 -2.49219,0.33203 -3.23828,0.99609l0.58203,1.07812c0.58203,-0.5 1.57812,-0.83203 2.48828,-0.83203c1.41406,0 2.16016,0.66407 2.16016,1.91016l0,0.25l-2.24219,0c-2.32422,0 -3.15235,1.07812 -3.15235,2.32031c0,1.41016 1.16016,2.32422 2.90235,2.32422c1.24609,0 2.16015,-0.41406 2.57422,-1.16016l0,1.07813l1.32812,0l0,-4.8125c0,-2.15625 -1.24609,-3.15234 -3.40234,-3.15234zm-0.33203,6.96875c-1.07813,0 -1.74219,-0.4961 -1.74219,-1.2461c0,-0.66406 0.41406,-1.24219 1.82422,-1.24219l2.24219,0l0,1.07813c-0.41407,0.91406 -1.2461,1.41016 -2.32422,1.41016zm6.64062,-0.9961c-0.58203,0 -0.99609,0.41406 -0.99609,0.9961c0,0.41406 0.25,0.82812 0.66406,0.91406l-0.58203,2.23828l0.91406,0l0.66406,-2.07422c0.16407,-0.58203 0.25,-0.74609 0.25,-1.07812c0,-0.4961 -0.33203,-0.9961 -0.91406,-0.9961zm-128.33203,20.2461l0,-10.45313l-1.24609,0l-4.31641,7.38281l-4.39844,-7.38281l-1.24609,0l0,10.45313l1.41406,0l0,-7.55079l3.81641,6.3086l0.66406,0l3.82031,-6.3086l0,7.63282l1.49219,0l0,-0.08203zm6.39063,0.08203c2.41015,0 4.07031,-1.65625 4.07031,-4.0625c0,-2.32422 -1.7461,-4.06641 -4.07031,-4.06641c-2.32422,0 -4.14844,1.66016 -4.14844,4.06641c0.08203,2.40625 1.82422,4.0625 4.14844,4.0625zm0,-1.24219c-1.49219,0 -2.65625,-1.07813 -2.65625,-2.82031c0,-1.66016 1.16406,-2.73828 2.65625,-2.73828c1.49609,0 2.65625,1.07812 2.65625,2.73828c0,1.74218 -1.07813,2.82031 -2.65625,2.82031zm6.89062,-6.72266l-0.16406,2.90625c-0.08594,1.90625 -0.16797,3.81641 -1.41406,3.81641c-0.08204,0 -0.2461,0 -0.33204,-0.08203l-0.08203,1.24219c0.33203,0.08203 0.58203,0.16796 0.91407,0.16796c1.82421,0 2.15625,-2.24218 2.32421,-4.98046l0.08204,-1.74219l3.40234,0l0,6.63672l1.41406,0l0,-7.96485l-6.14453,0zm15.6875,6.64063l0,-6.64063l-6.14062,0l-0.08204,2.65625c-0.08593,1.99219 -0.33203,3.89844 -1.41406,3.98438l-0.41406,0l0,3.07031l1.32812,0l0,-1.82812l6.64063,0l0,1.82812l1.32812,0l0,-3.07031l-1.24609,0zm-4.98047,-3.90235l0.08594,-1.49218l3.40234,0l0,5.39453l-4.39843,0c0.74609,-0.66406 0.82812,-2.24219 0.91015,-3.90235zm10.875,-2.82031c-1.24609,0 -2.48828,0.33203 -3.23828,0.9961l0.58203,1.07812c0.58203,-0.49609 1.57813,-0.82812 2.49219,-0.82812c1.41016,0 2.15625,0.66406 2.15625,1.90625l0,0.25l-2.24219,0c-2.32422,0 -3.15234,1.07812 -3.15234,2.32421c0,1.41016 1.16015,2.32032 2.90625,2.32032c1.24219,0 2.15625,-0.41407 2.57031,-1.16016l0,1.07813l1.32813,0l0,-4.8125c0,-2.15625 -1.24219,-3.15235 -3.40235,-3.15235zm-0.33203,6.96875c-1.07812,0 -1.74219,-0.49609 -1.74219,-1.24219c0,-0.66406 0.41407,-1.24609 1.82422,-1.24609l2.24219,0l0,1.07813c-0.41406,0.91406 -1.24609,1.41015 -2.32422,1.41015zm11.70313,-3.07031c0.83203,-0.33203 1.24609,-0.91016 1.24609,-1.74219c0,-1.32812 -1.07813,-1.99219 -2.98828,-1.99219l-3.65235,0l0,7.88282l3.82032,0c2.07422,0 3.15234,-0.82813 3.15234,-2.15625c-0.08203,-1.07813 -0.58203,-1.74219 -1.57812,-1.99219zm-3.98438,-2.73828l2.16016,0c1.07812,0 1.66015,0.33203 1.66015,1.16406c0,0.82813 -0.58203,1.16016 -1.66015,1.16016l-2.16016,0l0,-2.32422zm2.32422,5.72656l-2.32422,0l0,-2.40625l2.41016,0c1.16015,0 1.74218,0.41406 1.74218,1.24609c-0.08203,0.7461 -0.66406,1.16016 -1.82812,1.16016zm8.88281,1.16016c1.41016,0 2.57422,-0.57813 3.23828,-1.74219l-1.07812,-0.66406c-0.5,0.75 -1.2461,1.16406 -2.16016,1.16406c-1.57812,0 -2.73828,-1.07813 -2.73828,-2.82031c0,-1.66016 1.16016,-2.73828 2.73828,-2.73828c0.83203,0 1.66016,0.33203 2.16016,1.16015l1.07812,-0.66406c-0.66406,-1.07813 -1.82812,-1.66016 -3.23828,-1.66016c-2.40625,0 -4.14844,1.66016 -4.14844,4.06641c0,2.24219 1.74219,3.89844 4.14844,3.89844zm10.79297,-0.08203l1.66016,0l-3.23828,-4.06641l2.98828,-3.81641l-1.57813,0l-2.57422,3.32032l-1.66015,0l0,-3.32032l-1.41016,0l0,7.88282l1.41016,0l0,-3.31641l1.66015,0l2.74219,3.31641zm5.89453,-7.96485c-1.24609,0 -2.49219,0.33203 -3.23828,0.9961l0.58203,1.07812c0.57813,-0.49609 1.57422,-0.82812 2.48828,-0.82812c1.41016,0 2.16016,0.66406 2.16016,1.90625l0,0.25l-2.24219,0c-2.32422,0 -3.15625,1.07812 -3.15625,2.32421c0,1.41016 1.16406,2.32032 2.90625,2.32032c1.2461,0 2.16016,-0.41407 2.57422,-1.16016l0,1.07813l1.32813,0l0,-4.8125c0,-2.15625 -1.2461,-3.15235 -3.40235,-3.15235zm-0.33203,6.96875c-1.08203,0 -1.74609,-0.49609 -1.74609,-1.24219c0,-0.66406 0.41797,-1.24609 1.82812,-1.24609l2.24219,0l0,1.07813c-0.41797,0.91406 -1.24609,1.41015 -2.32422,1.41015zm9.21094,-6.88672c-2.15625,0 -3.48438,0.91407 -3.48438,2.73828c0,1.2461 0.66407,2.07422 1.82422,2.40625l-1.90625,2.73829l1.57422,0l1.74609,-2.48829l2.48829,0l0,2.48829l1.24609,0l0,-7.88282l-3.48828,0zm-1.99219,2.82032c0,-1.07813 0.75,-1.57422 2.07813,-1.57422l2.15625,0l0,3.15234l-2.15625,0c-1.41407,-0.08203 -2.07813,-0.58203 -2.07813,-1.57812zm17.92969,-2.82032l-2.73828,6.3086l-2.73828,-6.3086l-1.4961,0l3.48828,7.88282l-0.25,0.58203c-0.41406,0.91406 -0.82812,1.24609 -1.49218,1.24609c-0.5,0 -0.9961,-0.25 -1.41407,-0.58203l-0.57812,1.07812c0.49609,0.5 1.24219,0.7461 1.99219,0.7461c1.24218,0 2.15625,-0.4961 2.82031,-2.15625l3.82031,-8.71485l-1.41406,0l0,-0.08203zm3.15625,0l-0.16797,2.90625c-0.08203,1.90625 -0.16406,3.81641 -1.41016,3.81641c-0.08203,0 -0.25,0 -0.33203,-0.08203l-0.08203,1.24219c0.33203,0.08203 0.58203,0.16796 0.91406,0.16796c1.82422,0 2.15625,-2.24218 2.32422,-4.98046l0.08203,-1.74219l3.40235,0l0,6.63672l1.41015,0l0,-7.96485l-6.14062,0zm9.1289,7.96485c0.5,0 0.9961,-0.41407 0.9961,-0.99219c0,-0.58203 -0.41406,-0.99609 -0.9961,-0.99609c-0.57812,0 -0.99609,0.41406 -0.99609,0.99609c0,0.57812 0.5,0.99219 0.99609,0.99219zm3.40625,-2.07422c-0.58203,0 -0.99609,0.41797 -0.99609,0.99609c0,0.41797 0.24609,0.83203 0.66406,0.91406l-0.58203,2.24219l0.91406,0l0.66407,-2.07812c0.16406,-0.57813 0.24609,-0.7461 0.24609,-1.07813c0.08594,-0.49609 -0.33203,-0.99609 -0.91016,-0.99609zm13.94532,0.75l0,-6.64063l-6.14453,0l-0.08204,2.65625c-0.08203,1.99219 -0.33203,3.89844 -1.41015,3.98438l-0.41797,0l0,3.07031l1.32812,0l0,-1.82812l6.64063,0l0,1.82812l1.32812,0l0,-3.07031l-1.24218,0zm-4.98047,-3.90235l0.08203,-1.49218l3.40234,0l0,5.39453l-4.39843,0c0.74609,-0.66406 0.91406,-2.24219 0.91406,-3.90235zm8.38281,5.22657c0.49609,0 0.99609,-0.41407 0.99609,-0.99219c0,-0.58203 -0.41406,-0.99609 -0.99609,-0.99609c-0.58203,0 -0.99609,0.41406 -0.99609,0.99609c0,0.57812 0.41406,0.99219 0.99609,0.99219zm9.37891,-6.38672l-1.16016,0l0.24609,-2.90625l4.64844,0l0,-1.32813l-5.89062,0l-0.58203,5.47657l2.40625,0c2.40625,0 3.15625,0.75 3.15625,1.91015c0,1.16016 -0.91407,1.91016 -2.49219,1.91016c-1.2461,0 -2.40625,-0.5 -3.15235,-1.16406l-0.66406,1.16406c0.91016,0.82812 2.32422,1.24219 3.81641,1.24219c2.65625,0 3.98437,-1.41016 3.98437,-3.23438c0.08203,-1.74219 -1.16015,-3.07031 -4.3164,-3.07031zm6.64062,4.3125c-0.58203,0 -0.99609,0.41797 -0.99609,0.99609c0,0.41797 0.25,0.83203 0.66406,0.91406l-0.58203,2.24219l0.91406,0l0.66406,-2.07812c0.16797,-0.57813 0.25,-0.7461 0.25,-1.07813c0,-0.49609 -0.41406,-0.99609 -0.91406,-0.99609zm-129.24219,12.28125c-1.41406,0 -2.57421,0.41797 -3.32031,1.32812l0.82813,0.83203c0.66406,-0.66406 1.49609,-0.99609 2.40625,-0.99609c1.49609,0 2.65625,0.91016 2.90625,2.32422l-3.98438,0l0,1.07812l3.98438,0c-0.25,1.41016 -1.41016,2.40625 -2.98828,2.40625c-0.9961,0 -1.74219,-0.33203 -2.40625,-0.91406l-0.83204,0.82813c0.75,0.83203 1.91016,1.24609 3.32032,1.24609c2.49218,0 4.23437,-1.74219 4.23437,-4.06641c0.08203,-2.40625 -1.74219,-4.0664 -4.14844,-4.0664zm11.86719,0.08594l-7.21875,0l0,1.24218l2.90235,0l0,6.64063l1.41406,0l0,-6.64063l2.90234,0l0,-1.24218zm4.31641,-0.08594c-1.24219,0 -2.48828,0.33203 -3.23438,0.99609l0.57813,1.07813c0.58203,-0.4961 1.57812,-0.82813 2.49219,-0.82813c1.41015,0 2.15625,0.66406 2.15625,1.91016l0,0.24609l-2.23829,0c-2.32421,0 -3.15625,1.07813 -3.15625,2.32422c0,1.41016 1.16407,2.32422 2.90625,2.32422c1.2461,0 2.15625,-0.41406 2.57422,-1.16406l0,1.08203l1.32813,0l0,-4.8125c0,-2.16016 -1.2461,-3.15625 -3.40625,-3.15625zm-0.33203,6.97265c-1.07813,0 -1.74219,-0.5 -1.74219,-1.24609c0,-0.66406 0.41406,-1.24609 1.82812,-1.24609l2.23829,0l0,1.08203c-0.41407,0.91015 -1.24219,1.41015 -2.32422,1.41015zm15.6914,0.9961l1.74219,0l-2.73828,-4.06641l2.48828,-3.8164l-1.49219,0l-2.16015,3.3164l-1.57813,0l0,-3.3164l-1.41015,0l0,3.3164l-1.57813,0l-2.15625,-3.3164l-1.49609,0l2.49218,3.8164l-2.73828,4.06641l1.74219,0l2.15625,-3.32031l1.57813,0l0,3.32031l1.41015,0l0,-3.32031l1.57813,0l2.16015,3.32031zm11.1211,-6.3086c-1.32813,0 -2.40625,0.5 -2.98828,1.41016c0,-0.16406 0,-0.24609 0,-0.33203c0,-2.57031 1.32812,-3.98047 3.48828,-3.98047c0.74609,0 1.49218,0.16406 1.99218,0.49609l0.57813,-1.16015c-0.66406,-0.41406 -1.57422,-0.58203 -2.57031,-0.58203c-2.90625,0 -4.98047,1.91015 -4.98047,5.47656c0,3.32031 1.57422,5.22656 4.39844,5.22656c2.07421,0 3.73437,-1.24219 3.73437,-3.3164c0,-2.07422 -1.57812,-3.23829 -3.65234,-3.23829zm-0.16407,5.22657c-1.57812,0 -2.49218,-0.91016 -2.49218,-1.98828c0,-1.16407 0.99609,-1.99219 2.40625,-1.99219c1.49609,0 2.41015,0.82812 2.41015,1.99219c0,1.16015 -0.91406,1.98828 -2.32422,1.98828zm6.0586,-0.91016c-0.58203,0 -0.9961,0.41406 -0.9961,0.99609c0,0.41407 0.25,0.82813 0.66407,0.91016l-0.58203,2.24219l0.91406,0l0.66406,-2.07422c0.16406,-0.58203 0.25,-0.74609 0.25,-1.07813c0.08203,-0.5 -0.33203,-0.99609 -0.91406,-0.99609zm10.46094,2.07422c2.40625,0 4.0664,-1.66016 4.0664,-4.06641c0,-2.32422 -1.74219,-4.0664 -4.0664,-4.0664c-2.32422,0 -4.15235,1.66015 -4.15235,4.0664c0,2.40625 1.74219,4.06641 4.15235,4.06641zm0,-1.24609c-1.4961,0 -2.65625,-1.07813 -2.65625,-2.82032c0,-1.66015 1.16015,-2.73828 2.65625,-2.73828c1.49218,0 2.65625,1.07813 2.65625,2.73828c0,1.74219 -1.16407,2.82032 -2.65625,2.82032zm16.18359,-2.82032c0,-2.48828 -1.74219,-3.8164 -4.64844,-3.98437l0,-3.07031l-1.41015,0l0,3.07031c-2.98829,0.16797 -4.64844,1.57812 -4.64844,3.98437c0,2.48828 1.74219,3.89844 4.64844,4.06641l0,2.82031l1.41015,0l0,-2.82031c2.90625,-0.16797 4.64844,-1.57813 4.64844,-4.06641zm-9.29688,0c0,-1.66015 1.08204,-2.57422 3.23829,-2.73828l0,5.5586c-2.15625,-0.16407 -3.23829,-1.16016 -3.23829,-2.82032zm4.64844,2.82032l0,-5.5586c2.16016,0.16406 3.23828,1.07813 3.23828,2.73828c0,1.74219 -1.07812,2.65625 -3.23828,2.82032zm6.8086,1.24609c0.49609,0 0.99609,-0.41406 0.99609,-0.99609c0,-0.58204 -0.41406,-0.9961 -0.99609,-0.9961c-0.58204,0 -0.9961,0.41406 -0.9961,0.9961c0,0.58203 0.41406,0.99609 0.9961,0.99609zm10.95703,-6.39063c-1.32813,0 -2.40625,0.5 -2.98828,1.41016c0,-0.16406 0,-0.24609 0,-0.33203c0,-2.57031 1.32812,-3.98047 3.48437,-3.98047c0.75,0 1.49609,0.16406 1.99219,0.49609l0.58203,-1.16015c-0.66406,-0.41406 -1.57813,-0.58203 -2.57422,-0.58203c-2.90234,0 -4.98047,1.91015 -4.98047,5.47656c0,3.32031 1.57813,5.22656 4.40235,5.22656c2.07421,0 3.73437,-1.24219 3.73437,-3.3164c-0.08203,-2.07422 -1.57812,-3.23829 -3.65234,-3.23829zm-0.25,5.22657c-1.57813,0 -2.48828,-0.91016 -2.48828,-1.98828c0,-1.16407 0.99609,-1.99219 2.40625,-1.99219c1.49218,0 2.40625,0.82812 2.40625,1.99219c0,1.16015 -0.91407,1.98828 -2.32422,1.98828zm4.3164,-9.375l0,1.32812l2.32422,0l0,9.12891l1.4961,0l0,-10.45703l-3.82032,0zm9.54688,-0.08203c-2.07422,0 -3.65235,1.24218 -3.65235,3.32031c0,1.90625 1.49219,3.15234 3.57032,3.15234c1.32812,0 2.40625,-0.5 2.98828,-1.41015l0,0.33203c0,2.65234 -1.32813,3.98047 -3.48828,3.98047c-0.7461,0 -1.49219,-0.16407 -1.99219,-0.4961l-0.58203,1.16016c0.66406,0.41406 1.57812,0.58203 2.57422,0.58203c2.90625,0 4.98047,-1.91016 4.98047,-5.47656c0,-3.32032 -1.57813,-5.14453 -4.39844,-5.14453zm0.08203,5.22656c-1.49219,0 -2.40625,-0.82813 -2.40625,-1.99219c0,-1.24219 0.91406,-1.99219 2.32422,-1.99219c1.66015,0 2.48828,0.91407 2.48828,1.99219c0.08594,1.07813 -0.91016,1.99219 -2.40625,1.99219zm-97.45313,30.70312l0,4.39844c-0.66406,-0.83203 -1.66015,-1.24609 -2.73828,-1.24609c-2.32422,0 -3.98437,1.57812 -3.98437,4.0664c0,2.40625 1.66015,4.06641 3.98437,4.06641c1.16407,0 2.16016,-0.41406 2.82422,-1.32813l0,1.2461l1.41016,0l0,-11.1211l-1.4961,0l0,-0.08203zm-2.65625,9.95703c-1.49218,0 -2.65625,-1.07812 -2.65625,-2.82031c0,-1.74219 1.16407,-2.73828 2.65625,-2.73828c1.4961,0 2.65625,1.07813 2.65625,2.73828c0,1.66016 -1.16015,2.82031 -2.65625,2.82031zm6.8086,1.16016l1.41015,0l0,-11.11719l-1.41015,0l0,11.11719zm6.39062,0.08594c2.07422,0 3.40235,-0.91406 3.40235,-2.32422c0,-3.07031 -4.98047,-1.57813 -4.98047,-3.40234c0,-0.66407 0.58203,-1.07813 1.91015,-1.07813c0.7461,0 1.57813,0.16406 2.32422,0.66406l0.58203,-1.16406c-0.66406,-0.41406 -1.82812,-0.74609 -2.90625,-0.74609c-1.99218,0 -3.32031,0.99609 -3.32031,2.40625c0,3.15234 4.98047,1.57812 4.98047,3.40234c0,0.66406 -0.58203,1.07813 -1.91016,1.07813c-0.99609,0 -2.07421,-0.33204 -2.73828,-0.82813l-0.58203,1.16016c0.66406,0.41406 1.99219,0.83203 3.23828,0.83203zm11.6211,-10.6211c-4.14844,0 -7.05469,2.82032 -7.05469,6.80079c0,3.98437 2.82031,6.80468 6.97266,6.80468c1.07812,0 2.32421,-0.24609 3.23828,-0.66406l-0.33203,-0.99609c-0.91407,0.5 -1.99219,0.66406 -2.90625,0.66406c-3.57032,0 -5.89454,-2.40625 -5.89454,-5.80859c0,-3.40235 2.40625,-5.8086 5.97657,-5.8086c3.48828,0 5.97656,2.24219 5.97656,5.5625c0,1.90625 -0.49609,2.90235 -1.41016,2.90235c-0.5,0 -0.83203,-0.25 -0.83203,-1.07813l0,-5.39453l-1.32812,0l0,1.24609c-0.57813,-0.83203 -1.57422,-1.24609 -2.73828,-1.24609c-2.15625,0 -3.65235,1.57812 -3.65235,3.81641c0,2.24218 1.57813,3.82031 3.65235,3.82031c1.24609,0 2.24218,-0.5 2.82421,-1.41406c0.16407,0.91406 0.82813,1.41406 1.82422,1.41406c1.66016,0 2.65625,-1.57813 2.65625,-4.06641c0,-3.90234 -2.82031,-6.55469 -6.97265,-6.55469zm-0.08203,9.45704c-1.4961,0 -2.57422,-1.07813 -2.57422,-2.65625c0,-1.65625 1.07812,-2.65235 2.57422,-2.65235c1.41015,0 2.57421,0.9961 2.57421,2.65235c0,1.66015 -1.16406,2.65625 -2.57421,2.65625zm15.1914,1.07812l1.74219,0l-3.65234,-4.64453l3.32031,-3.23828l-1.74219,0l-4.31641,3.98437l0,-7.13672l-1.41406,0l0,11.1211l1.41406,0l0,-2.16016l1.66016,-1.49219l2.98828,3.56641zm6.0586,-9.95703c0.41406,0 0.82812,0.16797 1.07812,0.33203l0.41406,-1.07812c-0.41406,-0.33204 -0.99609,-0.4961 -1.57422,-0.4961c-1.66015,0 -2.57421,0.9961 -2.57421,2.57031l0,0.66407l-1.32813,0l0,1.16015l1.32813,0l0,6.72266l1.41015,0l0,-6.72266l2.24219,0l0,-1.07812l-2.32422,0l0,-0.66406c0.08203,-0.9961 0.49609,-1.41016 1.32813,-1.41016zm5.3125,0c0.41406,0 0.83203,0.16797 1.07812,0.33203l0.41797,-1.07812c-0.41797,-0.33204 -0.99609,-0.4961 -1.57813,-0.4961c-1.66015,0 -2.65625,0.9961 -2.65625,2.57031l0,0.66407l-1.32812,0l0,1.16015l1.32812,0l0,6.72266l1.41016,0l0,-6.72266l2.24219,0l0,-1.07812l-2.32422,0l0,-0.66406c0.08203,-0.9961 0.49609,-1.41016 1.41016,-1.41016zm2.57421,10.04297c0.4961,0 0.9961,-0.41797 0.9961,-0.9961c0,-0.58203 -0.41406,-0.99609 -0.9961,-0.99609c-0.58203,0 -0.99609,0.41406 -0.99609,0.99609c0,0.57813 0.41406,0.9961 0.99609,0.9961zm6.3086,0c1.41015,0 2.57422,-0.58203 3.23828,-1.7461l-1.08203,-0.66015c-0.4961,0.74609 -1.24219,1.16015 -2.15625,1.16015c-1.57813,0 -2.73828,-1.07812 -2.73828,-2.82031c0,-1.66015 1.16015,-2.73828 2.73828,-2.73828c0.82812,0 1.66015,0.33203 2.15625,1.16016l1.08203,-0.66407c-0.66406,-1.07812 -1.82813,-1.66015 -3.23828,-1.66015c-2.40625,0 -4.15235,1.66015 -4.15235,4.0664c-0.08203,2.24219 1.66016,3.90235 4.15235,3.90235zm12.11719,-3.98438c0,-2.40625 -1.66016,-4.0664 -3.89844,-4.0664c-2.24219,0 -3.98438,1.66015 -3.98438,4.0664c0,2.32422 1.74219,4.06641 4.23047,4.06641c1.32813,0 2.41016,-0.41406 3.15625,-1.24609l-0.83203,-0.91016c-0.57812,0.66016 -1.32812,0.99219 -2.32422,0.99219c-1.57422,0 -2.65625,-0.91016 -2.90234,-2.32032l6.39062,0c0.16407,-0.33203 0.16407,-0.5 0.16407,-0.58203zm-3.89844,-2.90625c1.41015,0 2.40625,0.91407 2.57031,2.24219l-5.0625,0c0.08203,-1.32812 1.07813,-2.24219 2.49219,-2.24219zm10.125,-1.16015c-1.2461,0 -2.24219,0.5 -2.82031,1.24609l0,-1.16406l-1.41407,0l0,7.88281l1.41407,0l0,-4.06641c0,-1.74218 0.99609,-2.65234 2.48828,-2.65234c1.32812,0 2.16015,0.74609 2.16015,2.32031l0,4.39844l1.41016,0l0,-4.5625c0,-2.32422 -1.32813,-3.40234 -3.23828,-3.40234zm9.96094,6.47265c-0.33204,0.25 -0.66407,0.33203 -1.16016,0.33203c-0.83203,0 -1.24609,-0.5 -1.24609,-1.32812l0,-4.31641l2.24218,0l0,-1.07812l-2.24218,0l0,-1.74219l-1.41016,0l0,1.74219l-1.32813,0l0,1.16406l1.32813,0l0,4.3125c0,1.57813 0.91016,2.49219 2.48828,2.49219c0.66406,0 1.32813,-0.16797 1.74219,-0.58203l-0.41406,-0.9961zm9.04687,-2.40625c0,-2.40625 -1.66016,-4.0664 -3.89844,-4.0664c-2.32422,0 -3.98437,1.66015 -3.98437,4.0664c0,2.32422 1.74219,4.06641 4.23047,4.06641c1.32812,0 2.41015,-0.41406 3.15625,-1.24609l-0.83203,-0.91016c-0.57813,0.66016 -1.32813,0.99219 -2.32422,0.99219c-1.57422,0 -2.65625,-0.91016 -2.90235,-2.32032l6.39063,0c0.16406,-0.33203 0.16406,-0.5 0.16406,-0.58203zm-3.89844,-2.90625c1.41016,0 2.40625,0.91407 2.57032,2.24219l-5.14454,0c0.16407,-1.32812 1.16016,-2.24219 2.57422,-2.24219zm7.21875,0.25l0,-1.32812l-1.41015,0l0,7.88281l1.41015,0l0,-3.98047c0,-1.74219 0.9961,-2.65625 2.49219,-2.65625c0.08203,0 0.25,0 0.33203,0l0,-1.41015c-1.32812,0.08203 -2.24219,0.49609 -2.82422,1.49218zm0,0"/>
   <path id="svg_3" fill-rule="nonzero" fill="rgb(100%,100%,100%)" fill-opacity="0.6" d="m73.87891,132.60156l-4.81641,0l-0.91406,2.23828l-2.48828,0l4.64843,-10.45312l2.40625,0l4.64844,10.45312l-2.57422,0l-0.91015,-2.23828zm-0.75,-1.82812l-1.66016,-3.98047l-1.66016,3.98047l3.32032,0zm10.46093,4.23437c-1.07812,0 -2.07421,-0.25 -2.90625,-0.66406c-0.82812,-0.5 -1.57812,-1.07812 -2.07421,-1.91016c-0.5,-0.82812 -0.7461,-1.74218 -0.7461,-2.73828c0,-0.99609 0.2461,-1.90625 0.7461,-2.73828c0.49609,-0.82812 1.16015,-1.49219 2.07421,-1.90625c0.91407,-0.5 1.82813,-0.66406 2.90625,-0.66406c1.07813,0 2.07422,0.24609 2.90625,0.66406c0.82813,0.41406 1.57422,1.07813 2.07422,1.90625c0.4961,0.83203 0.7461,1.74219 0.7461,2.73828c0,0.9961 -0.25,1.99219 -0.7461,2.73828c-0.5,0.83204 -1.16406,1.49219 -2.07422,1.91016c-0.91406,0.41406 -1.82812,0.66406 -2.90625,0.66406zm0,-2.07422c0.58204,0 1.16016,-0.16796 1.66016,-0.41796c0.49609,-0.2461 0.91406,-0.66407 1.16016,-1.16016c0.25,-0.49609 0.41797,-1.07813 0.41797,-1.74219c0,-0.66406 -0.16797,-1.24609 -0.41797,-1.74219c-0.2461,-0.5 -0.66407,-0.91406 -1.16016,-1.16406c-0.5,-0.24609 -1.07812,-0.41406 -1.66016,-0.41406c-0.58203,0 -1.16406,0.16797 -1.66015,0.41406c-0.5,0.25 -0.91406,0.66406 -1.16406,1.16406c-0.2461,0.4961 -0.41407,1.07813 -0.41407,1.74219c0,0.66406 0.16797,1.2461 0.41407,1.74219c0.25,0.49609 0.66406,0.91406 1.16406,1.16016c0.41406,0.33203 0.99609,0.41796 1.66015,0.41796zm11.03907,-2.07421l2.07422,-2.90625l2.07812,0l-2.07812,2.90625l2.07812,2.90234l-2.07812,0l-2.07422,-2.90234zm3.32031,0l2.07422,-2.90625l2.07812,0l-2.07812,2.90625l2.07812,2.90234l-2.07812,0l-2.07422,-2.90234zm9.96094,-0.25l-1.66016,0l0,4.23046l-2.40625,0l0,-10.45312l2.40625,0l0,4.23047l1.74219,0l2.74219,-4.23047l2.57031,0l-3.40235,5.05859l3.48829,5.39453l-2.74219,0l-2.73828,-4.23046zm11.53906,4.39843c-1.07813,0 -2.07422,-0.25 -2.90625,-0.66406c-0.82813,-0.5 -1.57813,-1.07812 -2.07422,-1.91016c-0.5,-0.82812 -0.74609,-1.74218 -0.74609,-2.73828c0,-0.99609 0.24609,-1.90625 0.74609,-2.73828c0.49609,-0.82812 1.16016,-1.49219 2.07422,-1.90625c0.91406,-0.5 1.82812,-0.66406 2.90625,-0.66406c1.07812,0 2.07422,0.24609 2.90625,0.66406c0.82812,0.4961 1.57422,1.07813 2.07422,1.90625c0.49609,0.83203 0.74609,1.74219 0.74609,2.73828c0,0.9961 -0.25,1.99219 -0.74609,2.73828c-0.5,0.83204 -1.16406,1.49219 -2.07422,1.91016c-0.83203,0.41406 -1.82813,0.66406 -2.90625,0.66406zm0,-2.07422c0.58203,0 1.16016,-0.16796 1.66016,-0.41796c0.49609,-0.2461 0.91406,-0.66407 1.16015,-1.16016c0.25,-0.49609 0.41797,-1.07813 0.41797,-1.74219c0,-0.66406 -0.16797,-1.24609 -0.41797,-1.74219c-0.24609,-0.5 -0.66406,-0.91406 -1.16015,-1.16406c-0.5,-0.24609 -1.07813,-0.41406 -1.66016,-0.41406c-0.58203,0 -1.16406,0.16797 -1.66016,0.41406c-0.5,0.25 -0.91406,0.66406 -1.16406,1.16406c-0.24609,0.4961 -0.41406,1.07813 -0.41406,1.74219c0,0.66406 0.16797,1.2461 0.41406,1.74219c0.25,0.49609 0.66406,0.91406 1.16406,1.16016c0.4961,0.33203 1.07813,0.41796 1.66016,0.41796zm17.18359,-8.54687l0,10.45312l-2.41015,0l0,-4.3125l-4.73047,0l0,4.3125l-2.40625,0l0,-10.45312l2.40625,0l0,4.14844l4.73047,0l0,-4.14844l2.41015,0zm13.61328,8.46094l0,4.14843l-2.24218,0l0,-2.23828l-8.71485,0l0,-10.45703l2.40625,0l0,8.46485l4.64844,0l0,-8.46485l2.40625,0l0,8.46485l1.49609,0l0,0.08203zm9.71094,0.08593l0,1.90625l-8.13281,0l0,-10.45312l7.88281,0l0,1.90625l-5.47656,0l0,2.24219l4.8125,0l0,1.90625l-4.8125,0l0,2.40625l5.72656,0l0,0.08593zm6.47656,-8.54687c0.91016,0 1.74219,0.16406 2.40625,0.49609c0.66407,0.33203 1.2461,0.7461 1.57813,1.32813c0.33203,0.58203 0.57812,1.24609 0.57812,1.99219c0,0.74609 -0.16406,1.41015 -0.57812,1.99218c-0.33203,0.57813 -0.91406,0.99219 -1.57813,1.32422c-0.66406,0.33203 -1.49609,0.41797 -2.40625,0.41797l-2.07812,0l0,2.90234l-2.48828,0l0,-10.45312l4.5664,0zm-0.16796,5.55859c0.74609,0 1.24609,-0.16797 1.66015,-0.5c0.41406,-0.33203 0.58203,-0.74609 0.58203,-1.32422c0,-0.58203 -0.16797,-0.99609 -0.58203,-1.32812c-0.41406,-0.33203 -0.91406,-0.5 -1.66015,-0.5l-1.99219,0l0,3.65234l1.99219,0zm15.85546,-5.55859l0,10.45312l-2.40625,0l0,-4.3125l-4.73437,0l0,4.3125l-2.40625,0l0,-10.45312l2.40625,0l0,4.14844l4.73437,0l0,-4.14844l2.40625,0zm17.67969,8.46094l0,4.14843l-2.24219,0l0,-2.15625l-7.38671,0l0,2.15625l-2.24219,0l0,-4.14843l0.41797,0c0.66406,0 1.07812,-0.4961 1.32812,-1.41016c0.2461,-0.91016 0.41406,-2.15625 0.4961,-3.81641l0.08203,-3.23437l8.05468,0l0,8.46094l1.49219,0zm-7.55469,-4.97657c-0.08203,1.24219 -0.16406,2.32422 -0.33203,3.15235c-0.16406,0.82812 -0.41406,1.49219 -0.74609,1.82422l4.64844,0l0,-6.47266l-3.57032,0l0,1.49609zm18.51172,-3.48437l0,10.45312l-2.40625,0l0,-8.46484l-3.57031,0l-0.08203,2.16016c-0.08203,1.49218 -0.16797,2.65234 -0.33203,3.64843c-0.16797,0.91407 -0.5,1.66016 -0.9961,2.16016c-0.41406,0.49609 -1.07812,0.74609 -1.82812,0.74609c-0.33203,0 -0.74609,-0.08203 -1.16016,-0.16796l0.16407,-2.07422c0.16796,0 0.25,0.08593 0.41796,0.08593c0.57813,0 0.9961,-0.33203 1.24219,-0.99609c0.25,-0.66406 0.33203,-1.74219 0.41797,-3.23828l0.16406,-4.23047l7.96875,0l0,-0.08203zm7.55469,10.62109c-1.07812,0 -1.99219,-0.25 -2.90625,-0.66406c-0.82812,-0.5 -1.49219,-1.07812 -1.99219,-1.91016c-0.49609,-0.82812 -0.74609,-1.74218 -0.74609,-2.82031c0,-1.07812 0.25,-1.99219 0.74609,-2.73828c0.5,-0.83203 1.16407,-1.49609 1.99219,-1.91016c0.83203,-0.49609 1.82813,-0.66406 2.90625,-0.66406c0.91406,0 1.74219,0.16797 2.48828,0.5c0.75,0.33203 1.32813,0.7461 1.82813,1.41016l-1.57813,1.41015c-0.74609,-0.82812 -1.57812,-1.24609 -2.65625,-1.24609c-0.66406,0 -1.24609,0.16797 -1.74219,0.41797c-0.5,0.24609 -0.91406,0.66406 -1.16406,1.16016c-0.24609,0.49609 -0.41406,1.07812 -0.41406,1.74218c0,0.66407 0.16797,1.2461 0.41406,1.74219c0.25,0.5 0.66406,0.91406 1.16406,1.16406c0.4961,0.2461 1.07813,0.41407 1.74219,0.41407c1.07813,0 1.91016,-0.41407 2.65625,-1.2461l1.57813,1.41016c-0.5,0.58203 -1.07813,1.07812 -1.82813,1.41015c-0.74609,0.33204 -1.57422,0.41797 -2.48828,0.41797zm4.8125,-1.24609l2.07813,-2.90234l-2.07813,-2.90625l2.07813,0l2.07421,2.90625l-2.07421,2.90234l-2.07813,0zm3.40625,0l2.07422,-2.90234l-2.07422,-2.90625l2.07422,0l2.07422,2.90625l-2.07422,2.90234l-2.07422,0zm0,0"/>
   <path id="svg_4" fill-rule="nonzero" fill="rgb(100%,100%,100%)" d="m68.89844,83.47656l-3.48828,0l0,3.40235l-2.57422,0l0,-3.40235l-3.48438,0l0,-2.40625l3.48438,0l0,-3.40234l2.57422,0l0,3.40234l3.48828,0l0,2.40625zm12.69922,-8.21484l0,2.07422l-5.14844,11.86719l-3.48438,0l4.98047,-11.28516l-4.64843,0l0,2.23828l-2.90625,0l0,-4.89453l11.20703,0zm10.21093,17.83984c-0.83203,-1.24218 -1.41406,-2.57031 -1.82812,-4.23047c-0.41406,-1.57812 -0.66406,-3.32031 -0.66406,-5.14453c0,-1.82812 0.25,-3.48437 0.66406,-5.14453c0.41406,-1.57812 1.07812,-2.98828 1.82812,-4.23437l2.98829,0c-0.83204,1.49609 -1.41407,2.98828 -1.82813,4.48047c-0.41406,1.49609 -0.58203,3.15625 -0.58203,4.8125c0,1.66015 0.16797,3.32031 0.58203,4.8164c0.41406,1.49219 0.99609,2.98438 1.82813,4.48047l-2.98829,0l0,0.16406zm16.35157,-6.80468l-2.24219,0l0,2.90625l-3.15234,0l0,-2.90625l-7.47266,0l0,-2.15625l6.55859,-8.87891l3.40235,0l-6.0586,8.37891l3.73438,0l0,-2.57032l3.07031,0l0,2.57032l2.24219,0l0,2.65625l-0.08203,0zm5.80859,-11.28516c1.99219,0 3.48828,0.58203 4.56641,1.82812c1.07812,1.16016 1.66015,2.90235 1.66015,5.14454c0,1.57421 -0.33203,2.90234 -0.91406,4.0664c-0.57812,1.16016 -1.41016,1.98828 -2.48828,2.57031c-1.07813,0.58204 -2.32422,0.91407 -3.73438,0.91407c-0.75,0 -1.49609,-0.08594 -2.16015,-0.25c-0.66406,-0.16407 -1.2461,-0.41407 -1.74219,-0.7461l1.16016,-2.40625c0.66406,0.4961 1.57812,0.66407 2.57422,0.66407c1.16406,0 2.16015,-0.33204 2.82421,-0.9961c0.66407,-0.66406 1.07813,-1.74219 1.07813,-2.98828c-0.83203,0.82813 -1.99219,1.24609 -3.48828,1.24609c-0.91016,0 -1.66016,-0.16796 -2.40625,-0.5c-0.7461,-0.33203 -1.32813,-0.82812 -1.74219,-1.49218c-0.41406,-0.66407 -0.66406,-1.41016 -0.66406,-2.32422c0,-0.91406 0.25,-1.74219 0.66406,-2.48828c0.41406,-0.7461 1.07813,-1.2461 1.91016,-1.57813c0.99609,-0.49609 1.90625,-0.66406 2.90234,-0.66406zm0.25,6.55469c0.66406,0 1.24609,-0.16407 1.74219,-0.57813c0.41797,-0.41406 0.66406,-0.91406 0.66406,-1.49609c0,-0.57813 -0.24609,-1.07813 -0.66406,-1.49219c-0.41406,-0.41406 -0.9961,-0.58203 -1.74219,-0.58203c-0.66406,0 -1.24609,0.16797 -1.66016,0.58203c-0.41406,0.33203 -0.66406,0.91406 -0.66406,1.49219c0,0.66406 0.25,1.16406 0.66406,1.49609c0.33204,0.41406 0.91407,0.57813 1.66016,0.57813zm12.28516,-1.07813c1.99218,0 3.40234,0.41406 4.3164,1.16406c0.91407,0.7461 1.41016,1.82422 1.41016,3.15235c0,0.82812 -0.24609,1.66015 -0.66406,2.32422c-0.41407,0.66406 -1.07813,1.24218 -1.99219,1.66015c-0.82813,0.41407 -1.90625,0.57813 -3.23438,0.57813c-0.99609,0 -1.99218,-0.16406 -2.90625,-0.41406c-0.91406,-0.25 -1.74218,-0.66407 -2.40625,-1.07813l1.24219,-2.48828c0.5,0.41406 1.16406,0.74609 1.82813,0.91016c0.66406,0.25 1.41015,0.33203 2.15625,0.33203c0.83203,0 1.41406,-0.16407 1.91015,-0.4961c0.5,-0.33203 0.66407,-0.74609 0.66407,-1.32812c0,-0.58203 -0.25,-1.07813 -0.7461,-1.32813c-0.5,-0.33203 -1.32812,-0.49609 -2.49219,-0.49609l-3.5664,0l0.74609,-7.88281l8.46485,0l0,2.57031l-5.8086,0l-0.25,2.65625l1.32813,0l0,0.16406zm6.47656,12.61328c0.82812,-1.49218 1.41016,-2.98828 1.82422,-4.48047c0.41406,-1.49218 0.58203,-3.15234 0.58203,-4.8125c0,-1.66015 -0.16797,-3.32031 -0.58203,-4.8125c-0.41406,-1.49218 -0.9961,-2.98828 -1.82422,-4.48046l2.98828,0c0.82813,1.16015 1.41016,2.57031 1.82422,4.14843c0.41406,1.57813 0.66406,3.32032 0.66406,5.14453c0,1.82422 -0.25,3.56641 -0.66406,5.14454c-0.41406,1.57812 -1.07813,2.98828 -1.91016,4.14843l-2.90234,0zm24.32031,-17.83984l0,2.07422l-5.14453,11.86719l-3.57031,0l4.98047,-11.28516l-4.64844,0l0,2.23828l-2.82422,0l0,-4.89453l11.20703,0zm12.36719,0l0,2.07422l-5.14453,11.86719l-3.48828,0l4.98047,-11.28516l-4.64844,0l0,2.23828l-2.90235,0l0,-4.89453l11.20313,0zm6.97266,0l0,13.94141l-3.23438,0l0,-11.36719l-2.82422,0l0,-2.57422l6.0586,0zm2.74218,7.05469l5.64453,0l0,2.48828l-5.64453,0l0,-2.48828zm18.09375,-7.05469l0,2.07422l-5.14453,11.86719l-3.48828,0l4.98047,-11.28516l-4.64844,0l0,2.23828l-2.90625,0l0,-4.89453l11.20703,0zm12.94922,11.03516l-2.24219,0l0,2.90625l-3.15234,0l0,-2.90625l-7.47266,0l0,-2.15625l6.5586,-8.87891l3.40234,0l-6.05859,8.37891l3.73437,0l0,-2.57032l3.07422,0l0,2.57032l2.23828,0l0,2.65625l-0.08203,0zm1.41016,-3.98047l5.64453,0l0,2.48828l-5.64453,0l0,-2.48828zm16.93359,-0.41797c0.66406,0.33203 1.2461,0.83203 1.57813,1.32812c0.33203,0.58203 0.58203,1.16407 0.58203,1.91016c0,0.82812 -0.25,1.66016 -0.7461,2.23828c-0.5,0.66406 -1.16406,1.16406 -2.07812,1.49609c-0.91016,0.33204 -1.90625,0.4961 -3.07031,0.4961c-1.16016,0 -2.15625,-0.16406 -3.07032,-0.4961c-0.91406,-0.33203 -1.57812,-0.83203 -2.07421,-1.49609c-0.5,-0.66406 -0.75,-1.41016 -0.75,-2.23828c0,-0.74609 0.16796,-1.41016 0.5,-1.91016c0.33203,-0.57812 0.91406,-0.99609 1.57812,-1.32812c-0.5,-0.33203 -0.91406,-0.7461 -1.16406,-1.16016c-0.25,-0.49609 -0.41406,-1.07812 -0.41406,-1.66015c0,-0.82813 0.25,-1.49219 0.66406,-2.07422c0.41406,-0.58203 1.07812,-1.07813 1.91015,-1.41016c0.82813,-0.33203 1.74219,-0.49609 2.82032,-0.49609c1.07812,0 1.99218,0.16406 2.82422,0.49609c0.82812,0.33203 1.49218,0.74609 1.90625,1.41016c0.41796,0.66406 0.66406,1.32812 0.66406,2.07422c0,0.66406 -0.16406,1.16406 -0.41406,1.66015c-0.33204,0.41406 -0.66407,0.82813 -1.2461,1.16016zm-3.73437,-4.48047c-0.66407,0 -1.16016,0.16797 -1.57813,0.5c-0.41406,0.33203 -0.57812,0.74609 -0.57812,1.24219c0,0.5 0.16406,0.91406 0.57812,1.24609c0.41797,0.33203 0.91406,0.49609 1.57813,0.49609c0.66406,0 1.16406,-0.16406 1.57812,-0.49609c0.41406,-0.33203 0.58203,-0.74609 0.58203,-1.24609c0,-0.57813 -0.16797,-0.9961 -0.58203,-1.24219c-0.41406,-0.33203 -0.91406,-0.5 -1.57812,-0.5zm0,9.625c0.83203,0 1.41015,-0.16406 1.91015,-0.49609c0.4961,-0.33204 0.7461,-0.82813 0.7461,-1.49219c0,-0.66406 -0.25,-1.08203 -0.7461,-1.4961c-0.5,-0.33203 -1.07812,-0.49609 -1.91015,-0.49609c-0.82813,0 -1.41016,0.16406 -1.91016,0.49609c-0.49609,0.33204 -0.66406,0.83204 -0.66406,1.4961c0,0.66406 0.25,1.07812 0.66406,1.49219c0.5,0.33203 1.08203,0.49609 1.91016,0.49609zm12.69922,-11.78125l0,13.94141l-3.23438,0l0,-11.36719l-2.82422,0l0,-2.57422l6.0586,0zm0,0"/>
  </g>
  <rect id="svg_8" height="211" width="196" y="59.453125" x="52.5" stroke-width="1.5" stroke="#000000" fill="#000000"/>
 </g>
</svg>