<?xml version="1.0" encoding="utf-8"?>
<!-- Generator: Adobe Illustrator 24.1.2, SVG Export Plug-In . SVG Version: 6.00 Build 0)  -->
<svg version="1.1" id="Layer_1" xmlns="http://www.w3.org/2000/svg" xmlns:xlink="http://www.w3.org/1999/xlink" x="0px" y="0px"
	 viewBox="0 0 158 166" style="enable-background:new 0 0 158 166;" xml:space="preserve">
<style type="text/css">
	.st0{fill-rule:evenodd;clip-rule:evenodd;}
	.st1{fill:#FFFFFF;}
	.st2{fill:#FFFFFF;fill-opacity:0.6;}
</style>
<path class="st0" d="M115,0l42.8,24.3v141.4H43L0,141.3L0,0"/>
<path class="st1" d="M33.9,77v0.9h1.6V84h1v-7H33.9z M39.3,83.1l2.1-2.1c1-0.9,1.2-1.5,1.2-2.2c0-1.2-0.9-2-2.4-2
	c-1.1,0-2,0.4-2.6,1.1l0.7,0.6c0.4-0.5,1-0.8,1.8-0.8c1,0,1.5,0.4,1.5,1.2c0,0.4-0.1,0.9-0.9,1.6l-2.8,2.8V84h5v-0.9H39.3z M43.3,77
	v0.9h1.6V84h1v-7H43.3z M53.5,81.4h-1.3v-1.5h-0.9v1.5h-2.7L52,77h-1.1l-3.6,4.6v0.7h3.9V84h1v-1.7h1.3V81.4z M57.1,79.8
	c-0.9,0-1.6,0.3-2,0.9c0-0.1,0-0.2,0-0.3c0-1.8,0.9-2.6,2.3-2.6c0.5,0,1,0.1,1.3,0.3l0.4-0.8c-0.5-0.3-1.1-0.4-1.7-0.4
	c-2,0-3.3,1.3-3.3,3.7c0,2.2,1.1,3.5,2.9,3.5c1.4,0,2.5-0.9,2.5-2.2C59.5,80.6,58.5,79.8,57.1,79.8z M57,83.3
	c-1.1,0-1.7-0.6-1.7-1.3c0-0.8,0.7-1.4,1.6-1.4c1,0,1.6,0.5,1.6,1.4C58.6,82.7,57.9,83.3,57,83.3z M60,77v2.1h1v-1.3h3.2L61.4,84
	h1.1l2.8-6.3V77H60z M66.3,82.7c-0.4,0-0.7,0.3-0.7,0.7c0,0.3,0.2,0.5,0.4,0.6l-0.4,1.5h0.6l0.5-1.4c0.1-0.4,0.2-0.5,0.2-0.7
	C67,83,66.7,82.7,66.3,82.7z M75,78.7h-3.9V84h1v-4.5H75V78.7z M75.7,84.1c0.4,0,0.7-0.3,0.7-0.7c0-0.4-0.3-0.7-0.7-0.7
	c-0.4,0-0.7,0.3-0.7,0.7C75,83.8,75.3,84.1,75.7,84.1z M88,84l0-7h-0.8l-2.9,4.9L81.4,77h-0.8v7h1v-5.1l2.5,4.2h0.5l2.5-4.3l0,5.1
	H88z M92.3,84.1c1.6,0,2.8-1.1,2.8-2.7s-1.2-2.7-2.8-2.7c-1.6,0-2.8,1.1-2.8,2.7S90.7,84.1,92.3,84.1z M92.3,83.2
	c-1,0-1.8-0.7-1.8-1.9c0-1.1,0.8-1.9,1.8-1.9c1,0,1.8,0.7,1.8,1.9C94.1,82.5,93.3,83.2,92.3,83.2z M98.8,84.1c0.9,0,1.7-0.4,2.2-1.1
	l-0.7-0.5c-0.3,0.5-0.9,0.8-1.4,0.8c-1,0-1.8-0.7-1.8-1.9c0-1.1,0.8-1.9,1.8-1.9c0.6,0,1.1,0.2,1.4,0.8l0.7-0.5
	c-0.4-0.7-1.2-1.1-2.2-1.1c-1.6,0-2.8,1.1-2.8,2.7S97.1,84.1,98.8,84.1z M106,84h1.1l-2.2-2.8l2-2.6h-1l-1.7,2.2h-1.1v-2.2h-1V84h1
	v-2.2h1.1L106,84z M111.8,81.3c0.5-0.2,0.8-0.6,0.8-1.2c0-0.9-0.8-1.4-2-1.4h-2.5V84h2.6c1.4,0,2.1-0.5,2.1-1.5
	C112.8,81.9,112.5,81.4,111.8,81.3z M109.1,79.4h1.4c0.7,0,1.1,0.3,1.1,0.8c0,0.5-0.4,0.8-1.1,0.8h-1.4V79.4z M110.6,83.3h-1.5v-1.6
	h1.6c0.8,0,1.1,0.3,1.1,0.8C111.8,83,111.4,83.3,110.6,83.3z M116.2,78.7c-0.8,0-1.6,0.2-2.2,0.7l0.4,0.7c0.4-0.4,1.1-0.6,1.7-0.6
	c1,0,1.4,0.5,1.4,1.3v0.2H116c-1.6,0-2.1,0.7-2.1,1.6c0,0.9,0.8,1.6,2,1.6c0.8,0,1.4-0.3,1.7-0.8V84h0.9v-3.2
	C118.5,79.3,117.6,78.7,116.2,78.7z M116,83.3c-0.7,0-1.2-0.3-1.2-0.9c0-0.4,0.3-0.8,1.2-0.8h1.5v0.7C117.3,83,116.7,83.3,116,83.3z
	 M120.4,82.7c-0.4,0-0.7,0.3-0.7,0.7c0,0.3,0.2,0.5,0.4,0.6l-0.4,1.5h0.6l0.5-1.4c0.1-0.4,0.2-0.5,0.2-0.7
	C121.1,83,120.8,82.7,120.4,82.7z M34.5,96l0-7h-0.8l-2.9,4.9L27.9,89h-0.8v7h1v-5.1l2.5,4.2H31l2.5-4.3l0,5.1H34.5z M38.8,96.1
	c1.6,0,2.8-1.1,2.8-2.7s-1.2-2.7-2.8-2.7s-2.8,1.1-2.8,2.7S37.2,96.1,38.8,96.1z M38.8,95.2c-1,0-1.8-0.7-1.8-1.9
	c0-1.1,0.8-1.9,1.8-1.9c1,0,1.8,0.7,1.8,1.9C40.6,94.5,39.8,95.2,38.8,95.2z M43.4,90.7l-0.1,2c-0.1,1.3-0.1,2.5-1,2.5
	c-0.1,0-0.1,0-0.2,0L42,96c0.2,0.1,0.4,0.1,0.6,0.1c1.2,0,1.5-1.5,1.5-3.4l0.1-1.2h2.3V96h1v-5.3H43.4z M53.9,95.2v-4.5h-4.1
	l-0.1,1.8c-0.1,1.3-0.2,2.6-1,2.7h-0.3v2.1h0.9V96h4.4v1.2h0.9v-2.1H53.9z M50.6,92.6l0-1h2.3v3.6h-3C50.5,94.7,50.6,93.7,50.6,92.6
	z M57.9,90.7c-0.9,0-1.6,0.2-2.2,0.7l0.4,0.7c0.4-0.4,1-0.6,1.7-0.6c1,0,1.4,0.5,1.4,1.3v0.2h-1.5c-1.6,0-2.1,0.7-2.1,1.6
	c0,0.9,0.8,1.6,2,1.6c0.8,0,1.4-0.3,1.7-0.8V96h0.9v-3.2C60.1,91.3,59.3,90.7,57.9,90.7z M57.6,95.3c-0.7,0-1.2-0.3-1.2-0.9
	c0-0.4,0.3-0.8,1.2-0.8h1.5v0.7C58.9,95,58.4,95.3,57.6,95.3z M65.5,93.3c0.5-0.2,0.8-0.6,0.8-1.2c0-0.9-0.8-1.4-2-1.4h-2.5V96h2.5
	c1.4,0,2.1-0.5,2.1-1.5C66.5,93.9,66.2,93.4,65.5,93.3z M62.8,91.4h1.4c0.7,0,1.1,0.3,1.1,0.8c0,0.5-0.4,0.8-1.1,0.8h-1.4V91.4z
	 M64.3,95.3h-1.5v-1.6h1.6c0.8,0,1.1,0.3,1.1,0.8C65.5,95,65.1,95.3,64.3,95.3z M70.3,96.1c1,0,1.7-0.4,2.2-1.1l-0.7-0.5
	c-0.3,0.5-0.9,0.8-1.4,0.8c-1,0-1.8-0.7-1.8-1.9c0-1.1,0.8-1.9,1.8-1.9c0.6,0,1.1,0.2,1.4,0.8l0.7-0.5c-0.4-0.7-1.2-1.1-2.2-1.1
	c-1.6,0-2.8,1.1-2.8,2.7S68.7,96.1,70.3,96.1z M77.5,96h1.1l-2.2-2.8l2-2.6h-1l-1.7,2.2h-1.1v-2.2h-1V96h1v-2.2h1.1L77.5,96z
	 M81.5,90.7c-0.9,0-1.6,0.2-2.2,0.7l0.4,0.7c0.4-0.4,1-0.6,1.7-0.6c0.9,0,1.4,0.5,1.4,1.3v0.2h-1.5c-1.6,0-2.1,0.7-2.1,1.6
	c0,0.9,0.8,1.6,2,1.6c0.8,0,1.4-0.3,1.7-0.8V96h0.9v-3.2C83.7,91.3,82.9,90.7,81.5,90.7z M81.3,95.3c-0.7,0-1.2-0.3-1.2-0.9
	c0-0.4,0.3-0.8,1.2-0.8h1.5v0.7C82.5,95,82,95.3,81.3,95.3z M87.4,90.7c-1.4,0-2.3,0.6-2.3,1.9c0,0.8,0.5,1.4,1.2,1.6L85,96h1
	l1.2-1.7h0.1h1.5V96h0.9v-5.3H87.4z M86.1,92.6c0-0.7,0.5-1,1.4-1h1.4v2.1h-1.5C86.5,93.6,86.1,93.3,86.1,92.6z M98.1,90.7l-1.8,4.2
	l-1.8-4.2h-1l2.3,5.3l-0.2,0.4c-0.3,0.6-0.5,0.8-1,0.8c-0.4,0-0.7-0.1-0.9-0.4l-0.4,0.7c0.3,0.3,0.8,0.5,1.4,0.5
	c0.8,0,1.4-0.3,1.9-1.5l2.6-5.8H98.1z M100.2,90.7l-0.1,2c-0.1,1.3-0.1,2.5-1,2.5c-0.1,0-0.2,0-0.2,0L98.8,96
	c0.2,0.1,0.4,0.1,0.6,0.1c1.2,0,1.4-1.5,1.5-3.4l0.1-1.2h2.3V96h1v-5.3H100.2z M106.3,96.1c0.4,0,0.7-0.3,0.7-0.7
	c0-0.4-0.3-0.7-0.7-0.7c-0.4,0-0.7,0.3-0.7,0.7C105.7,95.8,106,96.1,106.3,96.1z M108.6,94.7c-0.4,0-0.7,0.3-0.7,0.7
	c0,0.3,0.2,0.5,0.4,0.6l-0.4,1.5h0.6l0.5-1.4c0.1-0.4,0.2-0.5,0.2-0.7C109.3,95,109,94.7,108.6,94.7z M117.9,95.2v-4.5h-4.1
	l-0.1,1.8c-0.1,1.3-0.2,2.6-1,2.7h-0.3v2.1h0.9V96h4.4v1.2h0.9v-2.1H117.9z M114.6,92.6l0-1h2.3v3.6h-3
	C114.5,94.7,114.6,93.7,114.6,92.6z M120.2,96.1c0.4,0,0.7-0.3,0.7-0.7c0-0.4-0.3-0.7-0.7-0.7c-0.4,0-0.7,0.3-0.7,0.7
	C119.5,95.8,119.8,96.1,120.2,96.1z M126.5,91.8h-0.8l0.2-1.9h3.1V89h-3.9l-0.4,3.7h1.6c1.6,0,2.1,0.5,2.1,1.3
	c0,0.8-0.6,1.3-1.7,1.3c-0.9,0-1.6-0.3-2.1-0.8l-0.5,0.8c0.6,0.5,1.6,0.8,2.6,0.8c1.8,0,2.7-1,2.7-2.2
	C129.4,92.7,128.6,91.8,126.5,91.8z M130.9,94.7c-0.4,0-0.7,0.3-0.7,0.7c0,0.3,0.2,0.5,0.4,0.6l-0.4,1.5h0.6l0.5-1.4
	c0.1-0.4,0.2-0.5,0.2-0.7C131.5,95,131.3,94.7,130.9,94.7z M44.4,102.6c-0.9,0-1.7,0.3-2.2,0.9l0.6,0.5c0.4-0.4,1-0.6,1.6-0.6
	c1,0,1.8,0.6,2,1.5h-2.6v0.7h2.7c-0.1,1-0.9,1.6-2,1.6c-0.6,0-1.2-0.2-1.6-0.6l-0.6,0.6c0.5,0.6,1.3,0.9,2.2,0.9
	c1.6,0,2.9-1.1,2.9-2.7C47.3,103.8,46,102.6,44.4,102.6z M52.4,102.7h-4.8v0.8h1.9v4.5h1v-4.5h1.9V102.7z M55.3,102.7
	c-0.8,0-1.6,0.2-2.2,0.7l0.4,0.7c0.4-0.4,1.1-0.6,1.7-0.6c1,0,1.4,0.5,1.4,1.3v0.2H55c-1.6,0-2.1,0.7-2.1,1.6c0,0.9,0.8,1.6,2,1.6
	c0.8,0,1.4-0.3,1.7-0.8v0.7h0.9v-3.2C57.5,103.3,56.7,102.7,55.3,102.7z M55,107.3c-0.7,0-1.2-0.3-1.2-0.9c0-0.4,0.3-0.8,1.2-0.8
	h1.5v0.7C56.3,107,55.8,107.3,55,107.3z M65.5,108h1.1l-1.8-2.7l1.7-2.6h-1l-1.4,2.2h-1v-2.2h-1v2.2h-1l-1.4-2.2h-1l1.7,2.6
	l-1.8,2.7h1.1l1.5-2.2h1v2.2h1v-2.2h1L65.5,108z M73,103.8c-0.9,0-1.6,0.3-2,0.9c0-0.1,0-0.2,0-0.3c0-1.8,0.9-2.6,2.3-2.6
	c0.5,0,1,0.1,1.3,0.3l0.4-0.8c-0.4-0.3-1.1-0.4-1.7-0.4c-2,0-3.3,1.3-3.3,3.7c0,2.2,1.1,3.5,2.9,3.5c1.4,0,2.5-0.9,2.5-2.2
	C75.4,104.6,74.4,103.8,73,103.8z M72.9,107.3c-1.1,0-1.7-0.6-1.7-1.3c0-0.8,0.7-1.4,1.6-1.4c1,0,1.6,0.5,1.6,1.4
	C74.4,106.7,73.8,107.3,72.9,107.3z M76.9,106.7c-0.4,0-0.7,0.3-0.7,0.7c0,0.3,0.2,0.5,0.4,0.6l-0.4,1.5h0.6l0.5-1.4
	c0.1-0.4,0.2-0.5,0.2-0.7C77.6,107,77.3,106.7,76.9,106.7z M83.9,108.1c1.6,0,2.8-1.1,2.8-2.7s-1.2-2.7-2.8-2.7
	c-1.6,0-2.8,1.1-2.8,2.7S82.3,108.1,83.9,108.1z M83.9,107.2c-1,0-1.8-0.7-1.8-1.9c0-1.1,0.8-1.9,1.8-1.9s1.8,0.7,1.8,1.9
	C85.7,106.5,84.9,107.2,83.9,107.2z M94.7,105.3c0-1.6-1.2-2.6-3.1-2.7v-2.1h-0.9v2.1c-2,0.1-3.1,1-3.1,2.7c0,1.7,1.1,2.6,3.1,2.7
	v1.9h0.9v-1.9C93.6,108,94.7,107,94.7,105.3z M88.5,105.3c0-1.1,0.7-1.7,2.2-1.8v3.7C89.2,107.1,88.5,106.5,88.5,105.3z M91.6,107.2
	v-3.7c1.5,0.1,2.2,0.7,2.2,1.8C93.8,106.5,93.1,107.1,91.6,107.2z M96.2,108.1c0.4,0,0.7-0.3,0.7-0.7c0-0.4-0.3-0.7-0.7-0.7
	c-0.4,0-0.7,0.3-0.7,0.7C95.5,107.8,95.8,108.1,96.2,108.1z M103.5,103.8c-0.9,0-1.6,0.3-2,0.9c0-0.1,0-0.2,0-0.3
	c0-1.8,0.9-2.6,2.3-2.6c0.5,0,1,0.1,1.3,0.3l0.4-0.8c-0.5-0.3-1.1-0.4-1.7-0.4c-2,0-3.3,1.3-3.3,3.7c0,2.2,1.1,3.5,2.9,3.5
	c1.4,0,2.5-0.9,2.5-2.2C105.9,104.6,104.9,103.8,103.5,103.8z M103.4,107.3c-1.1,0-1.7-0.6-1.7-1.3c0-0.8,0.7-1.4,1.6-1.4
	c1,0,1.6,0.5,1.6,1.4C104.9,106.7,104.3,107.3,103.4,107.3z M106.3,101v0.9h1.6v6.1h1v-7H106.3z M112.6,100.9
	c-1.4,0-2.5,0.9-2.5,2.2c0,1.3,1,2.1,2.4,2.1c0.9,0,1.6-0.3,2-0.9v0.3c0,1.8-0.9,2.6-2.3,2.6c-0.5,0-1-0.1-1.3-0.3l-0.4,0.8
	c0.5,0.3,1.1,0.4,1.7,0.4c2,0,3.3-1.3,3.3-3.7C115.6,102.2,114.5,100.9,112.6,100.9z M112.7,104.4c-1,0-1.6-0.5-1.6-1.4
	c0-0.8,0.6-1.4,1.5-1.4c1.1,0,1.7,0.6,1.7,1.3C114.3,103.8,113.7,104.4,112.7,104.4z M47.5,124.6v2.9c-0.4-0.6-1.1-0.8-1.9-0.8
	c-1.5,0-2.7,1.1-2.7,2.7c0,1.6,1.1,2.7,2.7,2.7c0.8,0,1.5-0.3,1.9-0.9v0.8h0.9v-7.4H47.5z M45.7,131.2c-1,0-1.8-0.7-1.8-1.9
	c0-1.1,0.8-1.9,1.8-1.9c1,0,1.8,0.7,1.8,1.9C47.5,130.5,46.7,131.2,45.7,131.2z M50.2,132h1v-7.4h-1V132z M54.6,132.1
	c1.4,0,2.3-0.6,2.3-1.6c0-2.1-3.4-1-3.4-2.3c0-0.4,0.4-0.7,1.3-0.7c0.5,0,1.1,0.1,1.5,0.4l0.4-0.8c-0.5-0.3-1.2-0.5-1.9-0.5
	c-1.4,0-2.2,0.6-2.2,1.6c0,2.1,3.3,1.1,3.3,2.3c0,0.5-0.4,0.7-1.3,0.7c-0.7,0-1.4-0.2-1.9-0.6l-0.4,0.8
	C52.8,131.8,53.7,132.1,54.6,132.1z M62.3,124.9c-2.8,0-4.7,1.9-4.7,4.5c0,2.6,1.9,4.6,4.7,4.6c0.7,0,1.5-0.2,2.2-0.5l-0.2-0.6
	c-0.6,0.3-1.3,0.4-1.9,0.4c-2.4,0-4-1.6-4-3.9c0-2.3,1.6-3.9,4-3.9c2.4,0,4,1.5,4,3.7c0,1.3-0.3,2-0.9,2c-0.3,0-0.6-0.2-0.6-0.7V127
	h-0.9v0.8c-0.4-0.6-1.1-0.8-1.8-0.8c-1.4,0-2.5,1.1-2.5,2.6c0,1.5,1,2.6,2.5,2.6c0.8,0,1.5-0.3,1.9-0.9c0.1,0.6,0.6,0.9,1.2,0.9
	c1.1,0,1.8-1,1.8-2.7C67,126.7,65.1,124.9,62.3,124.9z M62.2,131.3c-1,0-1.7-0.7-1.7-1.8c0-1.1,0.7-1.8,1.7-1.8c1,0,1.7,0.7,1.7,1.8
	S63.2,131.3,62.2,131.3z M72.4,132h1.2l-2.5-3.1l2.2-2.2h-1.2l-2.9,2.6v-4.8h-1v7.4h1v-1.4l1.1-1L72.4,132z M76.5,125.3
	c0.3,0,0.5,0.1,0.7,0.3l0.3-0.7c-0.3-0.2-0.7-0.3-1.1-0.3c-1.1,0-1.8,0.7-1.8,1.7v0.5h-0.9v0.8h0.9v4.5h1v-4.5h1.5v-0.8h-1.5v-0.5
	C75.6,125.6,75.9,125.3,76.5,125.3z M80,125.3c0.3,0,0.5,0.1,0.7,0.3l0.3-0.7c-0.3-0.2-0.7-0.3-1.1-0.3c-1.1,0-1.8,0.7-1.8,1.7v0.5
	h-0.9v0.8h0.9v4.5h1v-4.5h1.5v-0.8h-1.5v-0.5C79.1,125.6,79.4,125.3,80,125.3z M81.7,132.1c0.4,0,0.7-0.3,0.7-0.7
	c0-0.4-0.3-0.7-0.7-0.7c-0.4,0-0.7,0.3-0.7,0.7C81,131.8,81.4,132.1,81.7,132.1z M86,132.1c1,0,1.7-0.4,2.2-1.1l-0.7-0.5
	c-0.3,0.5-0.9,0.8-1.4,0.8c-1,0-1.8-0.7-1.8-1.9c0-1.1,0.8-1.9,1.8-1.9c0.6,0,1.1,0.2,1.4,0.8l0.7-0.5c-0.4-0.7-1.2-1.1-2.2-1.1
	c-1.6,0-2.8,1.1-2.8,2.7C83.2,130.9,84.3,132.1,86,132.1z M94.1,129.4c0-1.6-1.1-2.7-2.6-2.7c-1.5,0-2.7,1.1-2.7,2.7
	c0,1.6,1.1,2.7,2.8,2.7c0.9,0,1.6-0.3,2.1-0.9l-0.5-0.6c-0.4,0.4-0.9,0.6-1.5,0.6c-1,0-1.8-0.6-1.9-1.6h4.3
	C94.1,129.6,94.1,129.5,94.1,129.4z M91.5,127.5c0.9,0,1.6,0.6,1.7,1.5h-3.4C89.9,128.1,90.5,127.5,91.5,127.5z M98.2,126.7
	c-0.8,0-1.5,0.3-1.9,0.8v-0.8h-0.9v5.3h1v-2.7c0-1.2,0.7-1.8,1.7-1.8c0.9,0,1.4,0.5,1.4,1.5v2.9h1v-3.1
	C100.4,127.4,99.5,126.7,98.2,126.7z M104.9,131c-0.2,0.2-0.5,0.3-0.8,0.3c-0.5,0-0.8-0.3-0.8-0.9v-2.9h1.5v-0.8h-1.5v-1.2h-1v1.2
	h-0.9v0.8h0.9v2.9c0,1.1,0.6,1.7,1.7,1.7c0.4,0,0.9-0.1,1.2-0.4L104.9,131z M111,129.4c0-1.6-1.1-2.7-2.6-2.7s-2.7,1.1-2.7,2.7
	c0,1.6,1.1,2.7,2.9,2.7c0.9,0,1.6-0.3,2.1-0.9l-0.5-0.6c-0.4,0.4-0.9,0.6-1.5,0.6c-1.1,0-1.8-0.6-1.9-1.6h4.3
	C111,129.6,111,129.5,111,129.4z M108.3,127.5c0.9,0,1.6,0.6,1.7,1.5h-3.4C106.7,128.1,107.4,127.5,108.3,127.5z M113.2,127.6v-0.9
	h-0.9v5.3h1v-2.6c0-1.2,0.6-1.8,1.7-1.8c0.1,0,0.1,0,0.2,0v-0.9C114.2,126.7,113.6,127,113.2,127.6z"/>
<path class="st2" d="M29.1,66.8h-3.3l-0.6,1.5h-1.7l3.1-7h1.6l3.1,7h-1.7L29.1,66.8z M28.6,65.5l-1.1-2.7l-1.1,2.7H28.6z M35.6,68.4
	c-0.7,0-1.4-0.2-2-0.5c-0.6-0.3-1-0.7-1.4-1.3c-0.3-0.6-0.5-1.2-0.5-1.9c0-0.7,0.2-1.3,0.5-1.8c0.3-0.6,0.8-1,1.4-1.3
	c0.6-0.3,1.2-0.5,2-0.5c0.7,0,1.4,0.2,2,0.5c0.6,0.3,1,0.7,1.4,1.3c0.3,0.5,0.5,1.2,0.5,1.8c0,0.7-0.2,1.3-0.5,1.9
	c-0.3,0.5-0.8,1-1.4,1.3C37,68.2,36.3,68.4,35.6,68.4z M35.6,67c0.4,0,0.8-0.1,1.1-0.3c0.3-0.2,0.6-0.5,0.8-0.8
	c0.2-0.3,0.3-0.7,0.3-1.2c0-0.4-0.1-0.8-0.3-1.2c-0.2-0.3-0.4-0.6-0.8-0.8c-0.3-0.2-0.7-0.3-1.1-0.3c-0.4,0-0.8,0.1-1.1,0.3
	c-0.3,0.2-0.6,0.5-0.8,0.8c-0.2,0.3-0.3,0.7-0.3,1.2c0,0.4,0.1,0.8,0.3,1.2c0.2,0.3,0.5,0.6,0.8,0.8C34.8,66.9,35.2,67,35.6,67z
	 M43,65.6l1.4-2h1.4l-1.4,2l1.4,2h-1.4L43,65.6z M45.3,65.6l1.4-2h1.4l-1.4,2l1.4,2h-1.4L45.3,65.6z M51.9,65.5h-1.1v2.8h-1.6v-7
	h1.6v2.8H52l1.8-2.8h1.7l-2.3,3.4l2.4,3.6h-1.8L51.9,65.5z M59.6,68.4c-0.7,0-1.4-0.2-2-0.5c-0.6-0.3-1-0.7-1.4-1.3
	c-0.3-0.6-0.5-1.2-0.5-1.9c0-0.7,0.2-1.3,0.5-1.8c0.3-0.6,0.8-1,1.4-1.3c0.6-0.3,1.2-0.5,2-0.5c0.7,0,1.4,0.2,2,0.5
	c0.6,0.3,1,0.7,1.4,1.3c0.3,0.5,0.5,1.2,0.5,1.8c0,0.7-0.2,1.3-0.5,1.9c-0.3,0.5-0.8,1-1.4,1.3C61,68.2,60.4,68.4,59.6,68.4z
	 M59.6,67c0.4,0,0.8-0.1,1.1-0.3c0.3-0.2,0.6-0.5,0.8-0.8c0.2-0.3,0.3-0.7,0.3-1.2c0-0.4-0.1-0.8-0.3-1.2c-0.2-0.3-0.4-0.6-0.8-0.8
	c-0.3-0.2-0.7-0.3-1.1-0.3c-0.4,0-0.8,0.1-1.1,0.3c-0.3,0.2-0.6,0.5-0.8,0.8c-0.2,0.3-0.3,0.7-0.3,1.2c0,0.4,0.1,0.8,0.3,1.2
	c0.2,0.3,0.5,0.6,0.8,0.8C58.9,66.9,59.2,67,59.6,67z M71.1,61.3v7h-1.6v-2.9h-3.2v2.9h-1.6v-7h1.6V64h3.2v-2.8H71.1z M80.2,67v2.8
	h-1.5v-1.5h-5.8v-7h1.6V67h3.1v-5.7h1.6V67H80.2z M86.7,67v1.3h-5.4v-7h5.3v1.3h-3.7v1.5h3.3v1.3h-3.3V67H86.7z M91.1,61.3
	c0.6,0,1.2,0.1,1.6,0.3c0.5,0.2,0.8,0.5,1.1,0.9c0.2,0.4,0.4,0.8,0.4,1.3c0,0.5-0.1,1-0.4,1.3c-0.2,0.4-0.6,0.7-1.1,0.9
	c-0.5,0.2-1,0.3-1.6,0.3h-1.4v1.9H88v-7H91.1z M91,65c0.5,0,0.9-0.1,1.1-0.3c0.3-0.2,0.4-0.5,0.4-0.9c0-0.4-0.1-0.7-0.4-0.9
	c-0.3-0.2-0.6-0.3-1.1-0.3h-1.3V65H91z M101.6,61.3v7H100v-2.9h-3.2v2.9h-1.6v-7h1.6V64h3.2v-2.8H101.6z M113.4,67v2.8h-1.5v-1.5
	H107v1.5h-1.5l0-2.8h0.3c0.4,0,0.7-0.3,0.9-0.9c0.2-0.6,0.3-1.5,0.3-2.6l0.1-2.2h5.4V67H113.4z M108.4,63.6c0,0.8-0.1,1.5-0.2,2.1
	c-0.1,0.6-0.3,1-0.5,1.2h3.1v-4.4h-2.4L108.4,63.6z M120.7,61.3v7h-1.6v-5.7h-2.4l0,1.5c0,1-0.1,1.8-0.2,2.4
	c-0.1,0.6-0.3,1.1-0.6,1.4c-0.3,0.3-0.7,0.5-1.2,0.5c-0.2,0-0.5,0-0.8-0.1l0.1-1.4c0.1,0,0.2,0,0.3,0c0.4,0,0.7-0.2,0.8-0.7
	c0.2-0.5,0.3-1.2,0.3-2.1l0.1-2.8H120.7z M125.8,68.4c-0.7,0-1.4-0.2-1.9-0.5c-0.6-0.3-1-0.7-1.4-1.3c-0.3-0.6-0.5-1.2-0.5-1.9
	c0-0.7,0.2-1.3,0.5-1.9c0.3-0.6,0.8-1,1.4-1.3c0.6-0.3,1.2-0.5,1.9-0.5c0.6,0,1.2,0.1,1.6,0.3c0.5,0.2,0.9,0.5,1.2,0.9l-1,1
	c-0.5-0.5-1.1-0.8-1.8-0.8c-0.4,0-0.8,0.1-1.2,0.3c-0.3,0.2-0.6,0.5-0.8,0.8c-0.2,0.3-0.3,0.7-0.3,1.2c0,0.4,0.1,0.8,0.3,1.2
	c0.2,0.3,0.5,0.6,0.8,0.8c0.3,0.2,0.7,0.3,1.2,0.3c0.7,0,1.3-0.3,1.8-0.8l1,1c-0.3,0.4-0.7,0.7-1.2,0.9
	C126.9,68.3,126.4,68.4,125.8,68.4z M129.1,67.5l1.4-2l-1.4-2h1.4l1.4,2l-1.4,2H129.1z M131.3,67.5l1.4-2l-1.4-2h1.4l1.4,2l-1.4,2
	H131.3z"/>
<path class="st1" d="M22.8,41h-2.4v2.4h-1.8V41h-2.4v-1.7h2.4v-2.4h1.8v2.4h2.4V41z M31.8,35.2v1.5L28.1,45h-2.5l3.5-8h-3.2v1.6h-2
	v-3.4H31.8z M39,47.7c-0.6-0.8-1-1.8-1.3-3c-0.3-1.1-0.4-2.3-0.4-3.6c0-1.3,0.1-2.5,0.4-3.6c0.3-1.1,0.7-2.1,1.3-3h2.1
	c-0.6,1-1,2.1-1.3,3.2c-0.3,1.1-0.4,2.2-0.4,3.4c0,1.2,0.1,2.3,0.4,3.4c0.3,1.1,0.7,2.1,1.3,3.1H39z M50.5,42.9h-1.6V45h-2.2v-2.1
	h-5.3v-1.5l4.6-6.2h2.4l-4.3,5.9h2.6v-1.8h2.1v1.8h1.6V42.9z M54.5,35c1.4,0,2.4,0.4,3.2,1.3c0.8,0.8,1.2,2,1.2,3.6
	c0,1.1-0.2,2.1-0.6,2.9c-0.4,0.8-1,1.4-1.8,1.8c-0.8,0.4-1.6,0.6-2.6,0.6c-0.5,0-1-0.1-1.5-0.2c-0.5-0.1-0.9-0.3-1.2-0.5l0.8-1.7
	c0.5,0.3,1.1,0.5,1.8,0.5c0.8,0,1.5-0.2,2-0.7c0.5-0.5,0.7-1.2,0.8-2.1c-0.6,0.6-1.4,0.9-2.4,0.9c-0.6,0-1.2-0.1-1.7-0.4
	c-0.5-0.3-0.9-0.6-1.2-1.1c-0.3-0.5-0.4-1-0.4-1.6c0-0.7,0.2-1.2,0.5-1.7c0.3-0.5,0.8-0.9,1.3-1.1C53.2,35.2,53.8,35,54.5,35z
	 M54.7,39.7c0.5,0,0.9-0.1,1.2-0.4c0.3-0.3,0.5-0.6,0.5-1.1c0-0.4-0.2-0.8-0.5-1c-0.3-0.3-0.7-0.4-1.2-0.4c-0.5,0-0.9,0.1-1.2,0.4
	c-0.3,0.3-0.4,0.6-0.4,1.1c0,0.4,0.1,0.8,0.4,1.1C53.8,39.5,54.2,39.7,54.7,39.7z M63.4,38.9c1.4,0,2.4,0.3,3.1,0.8
	c0.7,0.6,1,1.3,1,2.2c0,0.6-0.1,1.1-0.4,1.6c-0.3,0.5-0.8,0.9-1.4,1.2c-0.6,0.3-1.4,0.4-2.3,0.4c-0.7,0-1.4-0.1-2-0.3
	c-0.7-0.2-1.2-0.4-1.7-0.8l0.9-1.7c0.4,0.3,0.8,0.5,1.3,0.7c0.5,0.1,1,0.2,1.5,0.2c0.6,0,1-0.1,1.3-0.3c0.3-0.2,0.5-0.5,0.5-0.9
	c0-0.4-0.2-0.7-0.5-1c-0.3-0.2-0.9-0.3-1.8-0.3h-2.5l0.5-5.5h6V37h-4.1l-0.2,1.9H63.4z M67.9,47.7c0.6-1,1-2.1,1.3-3.1
	c0.3-1.1,0.4-2.2,0.4-3.4c0-1.2-0.1-2.3-0.4-3.4c-0.3-1.1-0.7-2.1-1.3-3.2H70c0.6,0.8,1,1.8,1.3,2.9c0.3,1.1,0.5,2.3,0.5,3.6
	c0,1.3-0.1,2.5-0.4,3.6c-0.3,1.1-0.7,2.1-1.3,2.9H67.9z M85,35.2v1.5L81.3,45h-2.5l3.5-8h-3.2v1.6h-2v-3.4H85z M93.7,35.2v1.5L90,45
	h-2.5l3.5-8h-3.2v1.6h-2v-3.4H93.7z M98.6,35.2V45h-2.3v-8h-2v-1.8H98.6z M100.5,40.2h4v1.8h-4V40.2z M113.2,35.2v1.5l-3.6,8.3h-2.5
	l3.5-8h-3.2v1.6h-2v-3.4H113.2z M122.3,42.9h-1.6V45h-2.2v-2.1h-5.3v-1.5l4.6-6.2h2.4l-4.3,5.9h2.6v-1.8h2.1v1.8h1.6V42.9z
	 M123.3,40.2h4v1.8h-4V40.2z M135.2,39.8c0.5,0.2,0.9,0.6,1.1,1c0.3,0.4,0.4,0.8,0.4,1.4c0,0.6-0.2,1.1-0.5,1.6
	c-0.3,0.4-0.8,0.8-1.5,1c-0.6,0.2-1.3,0.4-2.2,0.4s-1.5-0.1-2.2-0.4c-0.6-0.3-1.1-0.6-1.4-1c-0.3-0.5-0.5-1-0.5-1.6
	c0-0.5,0.1-1,0.4-1.4c0.3-0.4,0.6-0.7,1.1-1c-0.4-0.2-0.6-0.5-0.8-0.8c-0.2-0.3-0.3-0.7-0.3-1.2c0-0.6,0.2-1.1,0.5-1.5
	c0.3-0.4,0.8-0.7,1.3-1c0.6-0.2,1.2-0.3,2-0.3c0.7,0,1.4,0.1,2,0.3c0.6,0.2,1,0.5,1.3,1c0.3,0.4,0.5,0.9,0.5,1.5
	c0,0.4-0.1,0.8-0.3,1.2C135.9,39.3,135.6,39.6,135.2,39.8z M132.6,36.7c-0.5,0-0.8,0.1-1.1,0.3c-0.3,0.2-0.4,0.5-0.4,0.9
	c0,0.4,0.1,0.7,0.4,0.9s0.6,0.3,1.1,0.3s0.8-0.1,1.1-0.3s0.4-0.5,0.4-0.9c0-0.4-0.1-0.7-0.4-0.9C133.4,36.8,133,36.7,132.6,36.7z
	 M132.6,43.5c0.6,0,1-0.1,1.3-0.4c0.3-0.3,0.5-0.6,0.5-1c0-0.4-0.2-0.8-0.5-1c-0.3-0.3-0.8-0.4-1.3-0.4c-0.6,0-1,0.1-1.3,0.4
	c-0.3,0.3-0.5,0.6-0.5,1c0,0.4,0.2,0.8,0.5,1S132,43.5,132.6,43.5z M141.5,35.2V45h-2.3v-8h-2v-1.8H141.5z"/>
</svg>
