<svg width="161" height="157" viewBox="0 0 161 157" fill="none" xmlns="http://www.w3.org/2000/svg">
<path d="M0 157L13.2085 50.7205L13.4823 50.3201L46.5377 0L161 24.6261V128.303L109.706 157H0ZM17.2463 52.1554L4.72221 152.896L108.542 152.862L156.757 125.9V27.8963L48.4882 4.60489L17.2463 52.1554Z" fill="white"/>
<path d="M46.1271 104.077H42.979L43.1158 71.943L46.1271 68.3058V59.2963H40.2414L33.6372 68.3058V104.077H27.5804V112.786H40.2414H42.9447H46.1271V104.077Z" fill="white"/>
<path d="M93.0413 59.2963H83.8022L65.6661 112.82H75.3159L93.0413 59.2963Z" fill="white"/>
<path d="M128.834 68.3058H132.256V72.6772H141.632V68.3058L134.925 59.2629H128.834V68.3058Z" fill="white"/>
<path d="M52.526 112.786H61.8335H62.0046V59.2963H52.526V112.786Z" fill="white"/>
<path d="M132.256 99.4055V104.077H128.834V112.786H141.666V104.077V99.4055H132.256Z" fill="white"/>
<path d="M91.9805 84.0893L102.588 112.82H112.614L96.8053 69.5739L91.9805 84.0893Z" fill="white"/>
<path d="M122.435 59.2963H112.717V96.9362L118.432 112.82H122.435V59.2963Z" fill="white"/>
<path d="M32.987 127.002H31.584V130.138H28.8807V121.896H31.584V125.099H33.0212L35.5534 121.896H38.4278L35.177 125.867L38.6673 130.138H35.485L32.987 127.002Z" fill="white"/>
<path d="M42.2946 129.704C41.5075 129.337 40.8916 128.837 40.481 128.203C40.0361 127.569 39.8308 126.835 39.8308 126C39.8308 125.166 40.0361 124.465 40.481 123.798C40.9258 123.164 41.5418 122.664 42.2946 122.297C43.0474 121.929 43.9371 121.763 44.9294 121.763C45.9218 121.763 46.7772 121.929 47.5643 122.297C48.3513 122.664 48.933 123.164 49.3779 123.798C49.8227 124.432 50.028 125.166 50.028 126C50.028 126.835 49.8227 127.535 49.3779 128.203C48.933 128.837 48.3171 129.337 47.5643 129.704C46.8115 130.071 45.9218 130.238 44.9294 130.238C43.9371 130.272 43.0474 130.071 42.2946 129.704ZM46.6404 127.669C47.0852 127.268 47.2905 126.701 47.2905 126C47.2905 125.3 47.0852 124.732 46.6404 124.332C46.1955 123.932 45.6138 123.698 44.9294 123.698C44.245 123.698 43.6633 123.898 43.2185 124.332C42.7736 124.766 42.5341 125.3 42.5341 126C42.5341 126.701 42.7736 127.235 43.2185 127.669C43.6633 128.069 44.245 128.303 44.9294 128.303C45.6138 128.303 46.1955 128.103 46.6404 127.669Z" fill="white"/>
<path d="M52.7313 121.896H55.4004V125.133H59.4382V121.896H62.1415V130.138H59.4382V127.068H55.4346V130.138H52.7655V121.896H52.7313Z" fill="white"/>
<path d="M76.1028 128.169V131.94H73.6048V130.138H65.6318V121.896H68.3009V128.203H72.065V121.896H74.7683V128.203H76.1028V128.169Z" fill="white"/>
<path d="M87.6688 126.668H80.6198C80.7566 127.168 81.0304 127.569 81.5094 127.869C81.9885 128.169 82.5702 128.303 83.2888 128.303C83.7679 128.303 84.2127 128.236 84.5891 128.103C84.9656 127.969 85.3077 127.769 85.6499 127.502L87.0871 128.87C86.1974 129.771 84.9313 130.205 83.2546 130.205C82.1938 130.205 81.2699 130.038 80.4829 129.671C79.6616 129.304 79.0457 128.803 78.6008 128.169C78.156 127.535 77.9507 126.801 77.9507 125.967C77.9507 125.166 78.156 124.432 78.6008 123.765C79.0457 123.131 79.6274 122.597 80.3802 122.23C81.133 121.863 81.9885 121.696 82.9124 121.696C83.8363 121.696 84.6576 121.863 85.3762 122.23C86.129 122.563 86.6765 123.064 87.1213 123.731C87.532 124.365 87.7373 125.133 87.7373 126C87.7373 126.067 87.7031 126.267 87.6688 126.668ZM81.3384 124.032C80.9277 124.332 80.654 124.766 80.5855 125.3H85.1709C85.0682 124.766 84.8287 124.365 84.4181 124.065C84.0074 123.765 83.4941 123.598 82.8782 123.598C82.2965 123.565 81.7832 123.731 81.3384 124.032Z" fill="white"/>
<path d="M98.5162 122.297C99.2348 122.664 99.7823 123.131 100.193 123.798C100.604 124.432 100.809 125.166 100.809 126.034C100.809 126.901 100.604 127.636 100.193 128.27C99.7823 128.904 99.2348 129.404 98.5162 129.771C97.7976 130.138 97.0106 130.305 96.1551 130.305C94.9575 130.305 94.0336 129.971 93.3492 129.304V133.141H90.6459V121.896H93.2123V122.864C93.8967 122.163 94.8548 121.796 96.1209 121.796C97.0106 121.763 97.7976 121.929 98.5162 122.297ZM97.387 127.669C97.8318 127.268 98.0372 126.701 98.0372 126C98.0372 125.3 97.7976 124.732 97.387 124.332C96.9422 123.932 96.3604 123.698 95.6761 123.698C94.9917 123.698 94.41 123.898 93.9651 124.332C93.5203 124.766 93.315 125.3 93.315 126C93.315 126.701 93.5203 127.235 93.9651 127.669C94.41 128.069 94.9917 128.303 95.6761 128.303C96.3947 128.303 96.9422 128.103 97.387 127.669Z" fill="white"/>
<path d="M103.546 121.896H106.215V125.133H110.253V121.896H112.957V130.138H110.253V127.068H106.215V130.138H103.546V121.896Z" fill="white"/>
</svg>
