<svg width="114" height="36" viewBox="0 0 114 36" fill="none" xmlns="http://www.w3.org/2000/svg">
<rect x="1" y="1" width="112" height="34" rx="17" fill="black" stroke="white" stroke-width="2"/>
<path d="M27.8285 14.544V21H25.9565V16.08H23.2685V21H21.4085V14.544H27.8285ZM32.6474 21.096C31.9674 21.096 31.3554 20.956 30.8114 20.676C30.2754 20.388 29.8554 19.992 29.5514 19.488C29.2474 18.984 29.0954 18.412 29.0954 17.772C29.0954 17.132 29.2474 16.56 29.5514 16.056C29.8554 15.552 30.2754 15.16 30.8114 14.88C31.3554 14.592 31.9674 14.448 32.6474 14.448C33.3274 14.448 33.9354 14.592 34.4714 14.88C35.0074 15.16 35.4274 15.552 35.7314 16.056C36.0354 16.56 36.1874 17.132 36.1874 17.772C36.1874 18.412 36.0354 18.984 35.7314 19.488C35.4274 19.992 35.0074 20.388 34.4714 20.676C33.9354 20.956 33.3274 21.096 32.6474 21.096ZM32.6474 19.56C33.1274 19.56 33.5194 19.4 33.8234 19.08C34.1354 18.752 34.2914 18.316 34.2914 17.772C34.2914 17.228 34.1354 16.796 33.8234 16.476C33.5194 16.148 33.1274 15.984 32.6474 15.984C32.1674 15.984 31.7714 16.148 31.4594 16.476C31.1474 16.796 30.9914 17.228 30.9914 17.772C30.9914 18.316 31.1474 18.752 31.4594 19.08C31.7714 19.4 32.1674 19.56 32.6474 19.56ZM44.6172 19.464V22.392H42.8772V21H38.3412V22.392H36.6012V19.464H36.8652C37.2652 19.456 37.5412 19.22 37.6932 18.756C37.8452 18.292 37.9412 17.632 37.9812 16.776L38.0652 14.544H43.6932V19.464H44.6172ZM39.6732 16.908C39.6492 17.564 39.5972 18.1 39.5172 18.516C39.4452 18.932 39.3052 19.248 39.0972 19.464H41.8212V16.08H39.7092L39.6732 16.908ZM49.5992 14.448C50.1992 14.448 50.7432 14.588 51.2312 14.868C51.7272 15.14 52.1152 15.528 52.3952 16.032C52.6752 16.528 52.8152 17.108 52.8152 17.772C52.8152 18.436 52.6752 19.02 52.3952 19.524C52.1152 20.02 51.7272 20.408 51.2312 20.688C50.7432 20.96 50.1992 21.096 49.5992 21.096C48.7752 21.096 48.1272 20.836 47.6552 20.316V23.328H45.7832V14.544H47.5712V15.288C48.0352 14.728 48.7112 14.448 49.5992 14.448ZM49.2752 19.56C49.7552 19.56 50.1472 19.4 50.4512 19.08C50.7632 18.752 50.9192 18.316 50.9192 17.772C50.9192 17.228 50.7632 16.796 50.4512 16.476C50.1472 16.148 49.7552 15.984 49.2752 15.984C48.7952 15.984 48.3992 16.148 48.0872 16.476C47.7832 16.796 47.6312 17.228 47.6312 17.772C47.6312 18.316 47.7832 18.752 48.0872 19.08C48.3992 19.4 48.7952 19.56 49.2752 19.56ZM57.1513 21.096C56.4713 21.096 55.8593 20.956 55.3153 20.676C54.7793 20.388 54.3593 19.992 54.0553 19.488C53.7513 18.984 53.5993 18.412 53.5993 17.772C53.5993 17.132 53.7513 16.56 54.0553 16.056C54.3593 15.552 54.7793 15.16 55.3153 14.88C55.8593 14.592 56.4713 14.448 57.1513 14.448C57.8313 14.448 58.4393 14.592 58.9753 14.88C59.5113 15.16 59.9313 15.552 60.2353 16.056C60.5393 16.56 60.6913 17.132 60.6913 17.772C60.6913 18.412 60.5393 18.984 60.2353 19.488C59.9313 19.992 59.5113 20.388 58.9753 20.676C58.4393 20.956 57.8313 21.096 57.1513 21.096ZM57.1513 19.56C57.6313 19.56 58.0233 19.4 58.3273 19.08C58.6393 18.752 58.7953 18.316 58.7953 17.772C58.7953 17.228 58.6393 16.796 58.3273 16.476C58.0233 16.148 57.6313 15.984 57.1513 15.984C56.6713 15.984 56.2753 16.148 55.9633 16.476C55.6513 16.796 55.4953 17.228 55.4953 17.772C55.4953 18.316 55.6513 18.752 55.9633 19.08C56.2753 19.4 56.6713 19.56 57.1513 19.56ZM65.7108 14.988C66.3268 14.988 66.8668 15.116 67.3308 15.372C67.7948 15.62 68.1508 15.972 68.3988 16.428C68.6548 16.884 68.7828 17.412 68.7828 18.012C68.7828 18.628 68.6308 19.176 68.3268 19.656C68.0308 20.128 67.6148 20.496 67.0788 20.76C66.5428 21.016 65.9348 21.144 65.2548 21.144C64.1268 21.144 63.2388 20.784 62.5908 20.064C61.9508 19.336 61.6308 18.272 61.6308 16.872C61.6308 15.576 61.9108 14.544 62.4708 13.776C63.0388 13 63.9068 12.492 65.0748 12.252L68.1468 11.64L68.3988 13.248L65.6868 13.788C64.9508 13.932 64.4028 14.172 64.0428 14.508C63.6908 14.844 63.4828 15.32 63.4188 15.936C63.6988 15.632 64.0348 15.4 64.4268 15.24C64.8188 15.072 65.2468 14.988 65.7108 14.988ZM65.2668 19.692C65.7468 19.692 66.1308 19.536 66.4188 19.224C66.7148 18.912 66.8628 18.516 66.8628 18.036C66.8628 17.548 66.7148 17.16 66.4188 16.872C66.1308 16.584 65.7468 16.44 65.2668 16.44C64.7788 16.44 64.3868 16.584 64.0908 16.872C63.7948 17.16 63.6468 17.548 63.6468 18.036C63.6468 18.524 63.7988 18.924 64.1028 19.236C64.4068 19.54 64.7948 19.692 65.2668 19.692ZM70.053 14.544H71.913V17.064H74.721V14.544H76.593V21H74.721V18.588H71.913V21H70.053V14.544ZM84.6611 17.796C84.6611 17.82 84.6491 17.988 84.6251 18.3H79.7411C79.8291 18.7 80.0371 19.016 80.3651 19.248C80.6931 19.48 81.1011 19.596 81.5891 19.596C81.9251 19.596 82.2211 19.548 82.4771 19.452C82.7411 19.348 82.9851 19.188 83.2091 18.972L84.2051 20.052C83.5971 20.748 82.7091 21.096 81.5411 21.096C80.8131 21.096 80.1691 20.956 79.6091 20.676C79.0491 20.388 78.6171 19.992 78.3131 19.488C78.0091 18.984 77.8571 18.412 77.8571 17.772C77.8571 17.14 78.0051 16.572 78.3011 16.068C78.6051 15.556 79.0171 15.16 79.5371 14.88C80.0651 14.592 80.6531 14.448 81.3011 14.448C81.9331 14.448 82.5051 14.584 83.0171 14.856C83.5291 15.128 83.9291 15.52 84.2171 16.032C84.5131 16.536 84.6611 17.124 84.6611 17.796ZM81.3131 15.864C80.8891 15.864 80.5331 15.984 80.2451 16.224C79.9571 16.464 79.7811 16.792 79.7171 17.208H82.8971C82.8331 16.8 82.6571 16.476 82.3691 16.236C82.0811 15.988 81.7291 15.864 81.3131 15.864ZM92.372 17.796C92.372 17.82 92.36 17.988 92.336 18.3H87.452C87.54 18.7 87.748 19.016 88.076 19.248C88.404 19.48 88.812 19.596 89.3 19.596C89.636 19.596 89.932 19.548 90.188 19.452C90.452 19.348 90.696 19.188 90.92 18.972L91.916 20.052C91.308 20.748 90.42 21.096 89.252 21.096C88.524 21.096 87.88 20.956 87.32 20.676C86.76 20.388 86.328 19.992 86.024 19.488C85.72 18.984 85.568 18.412 85.568 17.772C85.568 17.14 85.716 16.572 86.012 16.068C86.316 15.556 86.728 15.16 87.248 14.88C87.776 14.592 88.364 14.448 89.012 14.448C89.644 14.448 90.216 14.584 90.728 14.856C91.24 15.128 91.64 15.52 91.928 16.032C92.224 16.536 92.372 17.124 92.372 17.796ZM89.024 15.864C88.6 15.864 88.244 15.984 87.956 16.224C87.668 16.464 87.492 16.792 87.428 17.208H90.608C90.544 16.8 90.368 16.476 90.08 16.236C89.792 15.988 89.44 15.864 89.024 15.864Z" fill="white"/>
</svg>
