<svg width="207" height="53" viewBox="0 0 207 53" fill="none" xmlns="http://www.w3.org/2000/svg">
<rect x="1.5" y="1.5" width="204" height="50" rx="25" fill="black" stroke="white" stroke-width="3"/>
<path d="M52.81 21.702V33H49.534V24.39H44.83V33H41.575V21.702H52.81ZM61.243 33.168C60.053 33.168 58.982 32.923 58.03 32.433C57.092 31.929 56.357 31.236 55.825 30.354C55.293 29.472 55.027 28.471 55.027 27.351C55.027 26.231 55.293 25.23 55.825 24.348C56.357 23.466 57.092 22.78 58.03 22.29C58.982 21.786 60.053 21.534 61.243 21.534C62.433 21.534 63.497 21.786 64.435 22.29C65.373 22.78 66.108 23.466 66.64 24.348C67.172 25.23 67.438 26.231 67.438 27.351C67.438 28.471 67.172 29.472 66.64 30.354C66.108 31.236 65.373 31.929 64.435 32.433C63.497 32.923 62.433 33.168 61.243 33.168ZM61.243 30.48C62.083 30.48 62.769 30.2 63.301 29.64C63.847 29.066 64.12 28.303 64.12 27.351C64.12 26.399 63.847 25.643 63.301 25.083C62.769 24.509 62.083 24.222 61.243 24.222C60.403 24.222 59.71 24.509 59.164 25.083C58.618 25.643 58.345 26.399 58.345 27.351C58.345 28.303 58.618 29.066 59.164 29.64C59.71 30.2 60.403 30.48 61.243 30.48ZM82.1901 30.312V35.436H79.1451V33H71.2071V35.436H68.1621V30.312H68.6241C69.3241 30.298 69.8071 29.885 70.0731 29.073C70.3391 28.261 70.5071 27.106 70.5771 25.608L70.7241 21.702H80.5731V30.312H82.1901ZM73.5381 25.839C73.4961 26.987 73.4051 27.925 73.2651 28.653C73.1391 29.381 72.8941 29.934 72.5301 30.312H77.2971V24.39H73.6011L73.5381 25.839ZM90.9088 21.534C91.9588 21.534 92.9108 21.779 93.7648 22.269C94.6328 22.745 95.3118 23.424 95.8018 24.306C96.2918 25.174 96.5368 26.189 96.5368 27.351C96.5368 28.513 96.2918 29.535 95.8018 30.417C95.3118 31.285 94.6328 31.964 93.7648 32.454C92.9108 32.93 91.9588 33.168 90.9088 33.168C89.4668 33.168 88.3328 32.713 87.5068 31.803V37.074H84.2308V21.702H87.3598V23.004C88.1718 22.024 89.3548 21.534 90.9088 21.534ZM90.3418 30.48C91.1818 30.48 91.8678 30.2 92.3998 29.64C92.9458 29.066 93.2188 28.303 93.2188 27.351C93.2188 26.399 92.9458 25.643 92.3998 25.083C91.8678 24.509 91.1818 24.222 90.3418 24.222C89.5018 24.222 88.8088 24.509 88.2628 25.083C87.7308 25.643 87.4648 26.399 87.4648 27.351C87.4648 28.303 87.7308 29.066 88.2628 29.64C88.8088 30.2 89.5018 30.48 90.3418 30.48ZM104.125 33.168C102.935 33.168 101.864 32.923 100.912 32.433C99.9738 31.929 99.2388 31.236 98.7068 30.354C98.1748 29.472 97.9088 28.471 97.9088 27.351C97.9088 26.231 98.1748 25.23 98.7068 24.348C99.2388 23.466 99.9738 22.78 100.912 22.29C101.864 21.786 102.935 21.534 104.125 21.534C105.315 21.534 106.379 21.786 107.317 22.29C108.255 22.78 108.99 23.466 109.522 24.348C110.054 25.23 110.32 26.231 110.32 27.351C110.32 28.471 110.054 29.472 109.522 30.354C108.99 31.236 108.255 31.929 107.317 32.433C106.379 32.923 105.315 33.168 104.125 33.168ZM104.125 30.48C104.965 30.48 105.651 30.2 106.183 29.64C106.729 29.066 107.002 28.303 107.002 27.351C107.002 26.399 106.729 25.643 106.183 25.083C105.651 24.509 104.965 24.222 104.125 24.222C103.285 24.222 102.592 24.509 102.046 25.083C101.5 25.643 101.227 26.399 101.227 27.351C101.227 28.303 101.5 29.066 102.046 29.64C102.592 30.2 103.285 30.48 104.125 30.48ZM119.104 22.479C120.182 22.479 121.127 22.703 121.939 23.151C122.751 23.585 123.374 24.201 123.808 24.999C124.256 25.797 124.48 26.721 124.48 27.771C124.48 28.849 124.214 29.808 123.682 30.648C123.164 31.474 122.436 32.118 121.498 32.58C120.56 33.028 119.496 33.252 118.306 33.252C116.332 33.252 114.778 32.622 113.644 31.362C112.524 30.088 111.964 28.226 111.964 25.776C111.964 23.508 112.454 21.702 113.434 20.358C114.428 19 115.947 18.111 117.991 17.691L123.367 16.62L123.808 19.434L119.062 20.379C117.774 20.631 116.815 21.051 116.185 21.639C115.569 22.227 115.205 23.06 115.093 24.138C115.583 23.606 116.171 23.2 116.857 22.92C117.543 22.626 118.292 22.479 119.104 22.479ZM118.327 30.711C119.167 30.711 119.839 30.438 120.343 29.892C120.861 29.346 121.12 28.653 121.12 27.813C121.12 26.959 120.861 26.28 120.343 25.776C119.839 25.272 119.167 25.02 118.327 25.02C117.473 25.02 116.787 25.272 116.269 25.776C115.751 26.28 115.492 26.959 115.492 27.813C115.492 28.667 115.758 29.367 116.29 29.913C116.822 30.445 117.501 30.711 118.327 30.711ZM126.703 21.702H129.958V26.112H134.872V21.702H138.148V33H134.872V28.779H129.958V33H126.703V21.702ZM152.267 27.393C152.267 27.435 152.246 27.729 152.204 28.275H143.657C143.811 28.975 144.175 29.528 144.749 29.934C145.323 30.34 146.037 30.543 146.891 30.543C147.479 30.543 147.997 30.459 148.445 30.291C148.907 30.109 149.334 29.829 149.726 29.451L151.469 31.341C150.405 32.559 148.851 33.168 146.807 33.168C145.533 33.168 144.406 32.923 143.426 32.433C142.446 31.929 141.69 31.236 141.158 30.354C140.626 29.472 140.36 28.471 140.36 27.351C140.36 26.245 140.619 25.251 141.137 24.369C141.669 23.473 142.39 22.78 143.3 22.29C144.224 21.786 145.253 21.534 146.387 21.534C147.493 21.534 148.494 21.772 149.39 22.248C150.286 22.724 150.986 23.41 151.49 24.306C152.008 25.188 152.267 26.217 152.267 27.393ZM146.408 24.012C145.666 24.012 145.043 24.222 144.539 24.642C144.035 25.062 143.727 25.636 143.615 26.364H149.18C149.068 25.65 148.76 25.083 148.256 24.663C147.752 24.229 147.136 24.012 146.408 24.012ZM165.761 27.393C165.761 27.435 165.74 27.729 165.698 28.275H157.151C157.305 28.975 157.669 29.528 158.243 29.934C158.817 30.34 159.531 30.543 160.385 30.543C160.973 30.543 161.491 30.459 161.939 30.291C162.401 30.109 162.828 29.829 163.22 29.451L164.963 31.341C163.899 32.559 162.345 33.168 160.301 33.168C159.027 33.168 157.9 32.923 156.92 32.433C155.94 31.929 155.184 31.236 154.652 30.354C154.12 29.472 153.854 28.471 153.854 27.351C153.854 26.245 154.113 25.251 154.631 24.369C155.163 23.473 155.884 22.78 156.794 22.29C157.718 21.786 158.747 21.534 159.881 21.534C160.987 21.534 161.988 21.772 162.884 22.248C163.78 22.724 164.48 23.41 164.984 24.306C165.502 25.188 165.761 26.217 165.761 27.393ZM159.902 24.012C159.16 24.012 158.537 24.222 158.033 24.642C157.529 25.062 157.221 25.636 157.109 26.364H162.674C162.562 25.65 162.254 25.083 161.75 24.663C161.246 24.229 160.63 24.012 159.902 24.012Z" fill="white"/>
</svg>
